<svg xmlns="http://www.w3.org/2000/svg" width="234" height="192" viewBox="0 0 234 192" fill="none">
    <path d="M61.4156 22.0642V52.9821H6.72436C6.82796 52.2861 7.14032 51.5975 7.59438 50.9323C8.15624 50.1093 8.91512 49.352 9.69052 48.7033C10.4639 48.0562 11.2398 47.5287 11.8236 47.1625C12.115 46.9797 12.3573 46.8379 12.5258 46.7423C12.61 46.6945 12.6758 46.6583 12.7199 46.6343L12.7694 46.6076L12.7813 46.6013L12.7839 46.6L12.7843 46.5998L61.4156 22.0642Z" stroke="#EEE7DD"/>
    <path d="M228.322 52.9821H173.631V22.0642L222.262 46.5998M228.322 52.9821L222.262 46.5998M228.322 52.9821C228.218 52.2861 227.906 51.5975 227.452 50.9323C226.89 50.1093 226.131 49.352 225.356 48.7033C224.582 48.0562 223.806 47.5287 223.223 47.1625C222.931 46.9797 222.689 46.8379 222.52 46.7423C222.436 46.6945 222.37 46.6583 222.326 46.6343L222.277 46.6076L222.265 46.6013L222.262 46.6L222.262 46.5998M228.322 52.9821L222.262 46.5998" stroke="#EEE7DD"/>
    <path d="M160.634 52.9709H74.4429V16.4519L104.118 3.18877L104.122 3.18674L104.151 3.17482C104.177 3.1641 104.216 3.14796 104.269 3.12693C104.374 3.08489 104.531 3.02336 104.737 2.94683C105.149 2.79375 105.754 2.58076 106.525 2.34369C108.066 1.86939 110.263 1.2996 112.878 0.919773C118.114 0.159365 124.995 0.165073 131.658 3.18569C138.436 6.25897 145.744 9.60791 151.357 12.1886C154.164 13.479 156.547 14.5772 158.228 15.3529C159.069 15.7407 159.734 16.0479 160.189 16.2581L160.599 16.4476L160.634 52.9709Z" stroke="#EEE7DD"/>
    <path d="M6.72428 139.031H61.4156V169.937L12.7843 145.418M6.72428 139.031L12.7843 145.418M6.72428 139.031C6.82781 139.728 7.14028 140.418 7.59446 141.083C8.15633 141.907 8.91521 142.665 9.69059 143.314C10.4639 143.961 11.2398 144.488 11.8237 144.855C12.115 145.038 12.3573 145.179 12.5258 145.275C12.6101 145.323 12.6758 145.359 12.7199 145.383L12.7694 145.41L12.7813 145.416L12.7839 145.417L12.7843 145.418M6.72428 139.031L12.7843 145.418" stroke="#EEE7DD"/>
    <path d="M173.631 139.031V169.937V139.031ZM173.631 139.031H228.322M173.631 139.031H228.322M228.322 139.031C228.218 139.728 227.906 140.418 227.452 141.083C226.89 141.907 226.131 142.665 225.356 143.314C224.582 143.961 223.806 144.488 223.223 144.855C222.931 145.038 222.689 145.179 222.52 145.275C222.436 145.323 222.37 145.359 222.326 145.383L222.277 145.41L222.265 145.416L222.262 145.417L222.262 145.418L228.322 139.031Z" stroke="#EEE7DD"/>
    <path d="M104.116 188.813L74.4429 175.55V139.031H160.634L160.599 175.555L160.189 175.744C159.734 175.955 159.069 176.262 158.228 176.65C156.547 177.426 154.164 178.524 151.357 179.815C145.744 182.396 138.436 185.745 131.658 188.816C124.995 191.835 118.114 191.841 112.878 191.081C110.263 190.701 108.066 190.132 106.525 189.658C105.754 189.421 105.149 189.208 104.737 189.055C104.531 188.979 104.374 188.917 104.269 188.875C104.216 188.854 104.177 188.838 104.151 188.827L104.122 188.815L104.118 188.813L104.116 188.813Z" stroke="#EEE7DD"/>
    <path d="M28.2586 102.003C30.4265 103.147 31.9104 104.825 33.1748 107.093L24.5857 109.552C23.9867 108.483 23.286 107.577 22.2999 106.926C21.2012 106.202 19.8036 105.832 17.9157 105.832C15.3238 105.832 13.501 106.68 12.3449 108.186C11.2081 109.666 10.7793 111.702 10.7793 113.956C10.7793 116.779 11.4034 118.889 12.7555 120.288C14.1113 121.69 16.1055 122.282 18.6239 122.282C20.9005 122.282 22.49 121.898 23.5815 121.211C24.6941 120.511 25.2348 119.531 25.4771 118.476L25.6176 117.864H24.9897H18.5788V113.107H34.3369V115.953C34.3369 119.78 32.9037 122.7 30.1708 124.683C27.4133 126.683 23.2763 127.768 17.8083 127.768C12.6614 127.768 8.3886 126.48 5.41383 124.125C2.45271 121.781 0.734619 118.347 0.734619 113.944C0.734619 109.973 2.2295 106.535 5.10094 104.083C7.97946 101.625 12.2874 100.119 17.9714 100.119C22.6949 100.119 25.9067 100.761 28.2586 102.003ZM51.3244 122.452H50.9927L50.8637 122.758L48.9278 127.346H38.7472L52.0719 100.545H62.115L75.4355 127.346L65.1476 127.339L63.2116 122.758L63.0826 122.452H62.7511H51.3244ZM60.1928 117.344H60.9229L60.659 116.664L59.9521 114.841C59.9519 114.84 59.9516 114.839 59.9514 114.839C59.8022 114.445 59.6623 114.077 59.5308 113.732C58.4624 110.921 57.9495 109.572 57.5214 107.94L57.0377 106.095L56.5541 107.94C56.0747 109.768 55.4917 111.283 54.1367 114.806L54.1247 114.837L54.1242 114.838L53.4165 116.664L53.1525 117.344H53.8827H60.1928ZM106.301 117.534L113.351 127.346H102.79L96.7359 118.196L96.5876 117.972H96.3189H92.0737H91.5737V118.472V127.346H82.1815V100.545H98.7101C103.143 100.545 106.754 101.158 109.24 102.536C110.476 103.22 111.425 104.089 112.068 105.159C112.71 106.228 113.062 107.526 113.062 109.097C113.062 111.063 112.437 112.632 111.332 113.878C110.218 115.133 108.591 116.089 106.549 116.768L105.905 116.982L106.301 117.534ZM91.5737 112.396V112.896H92.0737H98.2724C100.016 112.896 101.332 112.616 102.223 112.004C103.011 111.464 103.414 110.701 103.519 109.796H103.563V109.296C103.563 108.282 103.174 107.376 102.285 106.745C101.423 106.134 100.147 105.82 98.4395 105.82H92.0737H91.5737V106.32V112.396ZM130.925 122.46H130.594L130.465 122.765L128.525 127.346H118.348L131.684 100.545H141.727L155.033 127.346H144.755L142.808 122.765L142.679 122.46H142.348H130.925ZM139.794 117.344H140.524L140.26 116.664L139.553 114.84C139.553 114.84 139.552 114.84 139.552 114.84C139.428 114.512 139.31 114.202 139.198 113.908C138.081 110.978 137.559 109.606 137.118 107.939L136.633 106.103L136.151 107.94C135.672 109.768 135.089 111.283 133.734 114.805L133.721 114.837L133.721 114.838L133.013 116.664L132.749 117.344H133.479H139.794ZM170.9 119.347V127.346H161.782V100.545H170.38L178.613 108.622C179.473 109.467 180.749 110.809 181.911 112.086C183.082 113.373 184.105 114.559 184.48 115.103L185.38 114.711C185.256 114.153 185.175 112.97 185.127 111.597C185.079 110.244 185.065 108.758 185.065 107.629V100.545H194.199V127.346H186.298L177.361 118.319C175.68 116.617 172.428 113.059 171.465 111.846L170.585 112.265C170.709 112.823 170.79 114.006 170.839 115.379C170.886 116.732 170.9 118.218 170.9 119.347ZM211.997 106.758V106.258H211.497H201.334V100.545H232.227V106.258H222.052H221.552V106.758V127.346H211.997V106.758Z" stroke="#EEE7DD"/>
    <path d="M34.8369 115.969V112.607H18.0788V118.364H24.9897C24.5521 120.27 23.084 121.782 18.6239 121.782C13.7262 121.782 11.2793 119.478 11.2793 113.956C11.2793 109.547 12.9663 106.332 17.9157 106.332C21.5602 106.332 23.088 107.76 24.3372 110.144L33.9099 107.402C31.1925 102.202 27.4923 99.6191 17.9714 99.6191C6.43335 99.6191 0.234619 105.735 0.234619 113.944C0.234619 123.04 7.36037 128.268 17.8083 128.268C28.853 128.268 34.8369 123.891 34.8369 115.953V115.969ZM76.2426 127.846L62.4248 100.045H51.762L37.9402 127.846H49.2595L51.3244 122.952H62.7511L64.816 127.838L76.2426 127.846ZM60.1928 116.844H53.8827L54.5909 115.018C55.9516 111.481 56.5484 109.933 57.0377 108.067C57.5271 109.933 58.1279 111.441 59.4846 115.018L60.1928 116.844ZM114.326 127.846L106.707 117.242C110.897 115.85 113.562 113.263 113.562 109.097C113.562 102.504 107.634 100.045 98.7101 100.045H81.6815V127.846H92.0737V118.472H96.3189L102.522 127.846H114.326ZM103.047 109.296C103.047 111.286 101.686 112.396 98.2724 112.396H92.0737V106.32H98.4395C101.758 106.32 103.063 107.549 103.063 109.296H103.047ZM155.839 127.846L142.037 100.045H131.375L117.541 127.846H128.856L130.925 122.96H142.348L144.425 127.846H155.839ZM139.794 116.844H133.479L134.188 115.018C135.548 111.481 136.145 109.933 136.634 108.067C137.128 109.933 137.725 111.441 139.085 115.018L139.794 116.844ZM194.699 127.846V100.045H184.565V107.629C184.565 109.893 184.621 113.597 184.891 114.819C184.096 113.665 180.702 109.973 178.963 108.266L170.584 100.045H161.282V127.846H171.4V119.347C171.4 117.083 171.344 113.379 171.074 112.157C172.052 113.391 175.319 116.964 177.006 118.671L186.089 127.846H194.699ZM232.727 106.758V100.045H200.834V106.758H211.497V127.846H222.052V106.758H232.727Z" stroke="#EEE7DD" stroke-width="1.18" stroke-miterlimit="4.72"/>
    <path d="M49.018 83.0593V83.5071C48.847 85.882 47.2932 87.8245 44.1295 89.221C40.7489 90.7133 35.609 91.536 28.6461 91.536H2.44141V64.7346H28.7734C35.667 64.7346 40.455 65.3799 43.5029 66.5704C45.022 67.1638 46.0773 67.8806 46.7511 68.6905C47.4173 69.4913 47.7329 70.4092 47.7329 71.4605C47.7329 72.7699 47.1114 73.7236 46.0078 74.5034C44.88 75.3004 43.2826 75.8878 41.4224 76.4233L41.4564 77.3928C43.9348 77.9215 45.8436 78.6562 47.1225 79.6069C48.3821 80.5433 49.018 81.6758 49.018 83.0593ZM16.2101 74.6795V75.1795H16.7101H28.3119C30.1223 75.1795 31.4281 74.9605 32.2983 74.5254C32.741 74.304 33.087 74.0187 33.3207 73.6635C33.5563 73.3056 33.6578 72.9071 33.6578 72.495V72.4871C33.6578 72.0945 33.5617 71.7075 33.3348 71.3548C33.1093 71.0044 32.7729 70.7159 32.3349 70.4885C31.4732 70.0412 30.1653 69.8026 28.3119 69.8026H16.7101H16.2101V70.3026V74.6795ZM16.2101 85.9601V86.4601H16.7101H28.8569C30.8065 86.4601 32.2929 86.1689 33.3106 85.6276C34.3511 85.0741 34.927 84.2379 34.927 83.2185C34.927 82.1716 34.3205 81.356 33.2826 80.8311C32.2681 80.318 30.807 80.0565 28.9445 80.0565H16.7101H16.2101V80.5565V85.9601ZM86.9317 84.2402C88.6079 82.9476 89.5267 81.0653 89.6379 78.6731H89.6692V78.1731C89.6692 75.537 88.6979 73.4655 86.8703 72.0685C85.0629 70.6868 82.4771 70.0095 79.3181 70.0095C76.1625 70.0095 73.6139 70.6645 71.8439 72.0283C70.0525 73.4086 69.1261 75.4626 69.1261 78.0935C69.1261 80.7305 70.0916 82.8031 71.9144 84.2012C73.7171 85.5838 76.2984 86.2611 79.4573 86.2611C82.6131 86.2611 85.1617 85.605 86.9317 84.2402ZM159.656 80.1626V80.6626H159.66C159.469 84.56 157.036 87.3396 152.936 89.1883C148.641 91.1247 142.588 91.9976 135.628 91.9976C128.667 91.9976 122.695 91.1197 118.482 89.1824C114.294 87.2564 111.902 84.3207 111.902 80.1626V64.7465H126.59V80.1626C126.59 82.0261 127.341 83.569 128.924 84.6221C130.476 85.654 132.779 86.1855 135.843 86.1855C138.906 86.1855 141.17 85.6544 142.681 84.6182C144.225 83.5596 144.925 82.0143 144.925 80.1626V64.7465H159.656V80.1626ZM179.692 91.536L166.905 64.7346H181.636L183.035 69.0316C183.035 69.032 183.035 69.0323 183.035 69.0327C184.307 72.9763 185.802 77.786 186.352 81.0378L187.336 81.0503C187.962 77.8459 189.691 73.0871 191.433 69.1188L191.433 69.1189L191.438 69.1068L193.217 64.7465H206.684L208.463 69.1183L208.463 69.1183L208.468 69.1306C210.207 73.0956 211.943 77.8579 212.565 81.0617L213.549 81.0491C214.095 77.7978 215.594 72.9882 216.87 69.0445C216.87 69.0443 216.87 69.0441 216.87 69.0439L218.266 64.7465H232.832L220.05 91.536H206.477L204.068 85.806L204.067 85.804C202.245 81.5255 200.594 76.3663 200.285 74.4029L199.297 74.4029C198.989 76.3665 197.341 81.5259 195.52 85.804L195.519 85.8058L193.106 91.536H179.692ZM79.4573 64.2969C86.958 64.2969 93.2804 65.5514 97.7081 67.9156C102.119 70.2708 104.612 73.6979 104.612 78.0935C104.612 82.4866 102.082 85.9357 97.6286 88.3132C93.1603 90.6987 86.7976 91.9737 79.2982 91.9737C71.7976 91.9737 65.4752 90.7182 61.0475 88.3531C56.6365 85.9969 54.1439 82.5687 54.1439 78.1731C54.1439 73.78 56.6734 70.332 61.1269 67.9554C65.5952 65.5709 71.9579 64.2969 79.4573 64.2969Z" stroke="#EEE7DD"/>
    <path d="M49.518 83.0593C49.518 79.9199 46.5778 77.9741 41.5607 76.9038C45.2927 75.8295 48.2329 74.4806 48.2329 71.4605C48.2329 66.813 42.5912 64.2346 28.7734 64.2346H1.94141V92.036H28.6461C42.623 92.036 49.534 88.7414 49.534 83.0593H49.518ZM33.1578 72.495C33.1578 73.8041 31.8847 74.6795 28.3119 74.6795H16.7101V70.3026H28.3119C31.9643 70.3026 33.1578 71.2536 33.1578 72.4871V72.495ZM34.427 83.2185C34.427 84.8101 32.6804 85.9601 28.8569 85.9601H16.7101V80.5565H28.9445C32.6008 80.5565 34.427 81.5911 34.427 83.2185ZM105.112 78.0935C105.112 68.8383 94.5483 63.7969 79.4573 63.7969C64.3663 63.7969 53.6439 68.9179 53.6439 78.1731C53.6439 87.4283 64.2072 92.4737 79.2982 92.4737C94.3892 92.4737 105.112 87.3487 105.112 78.0935ZM89.1493 78.1731C89.1493 83.1787 85.6521 85.7611 79.4573 85.7611C73.2626 85.7611 69.6261 83.0991 69.6261 78.0935C69.6261 73.0879 73.1233 70.5095 79.3181 70.5095C85.5128 70.5095 89.1692 73.1715 89.1692 78.1731H89.1493ZM160.156 80.1626V64.2465H144.425V80.1626C144.425 83.5806 141.882 85.6855 135.843 85.6855C129.803 85.6855 127.09 83.5806 127.09 80.1626V64.2465H111.402V80.1626C111.402 88.9801 121.651 92.4976 135.628 92.4976C149.605 92.4976 160.172 89 160.172 80.1626H160.156ZM233.63 64.2465H217.902L216.394 68.89C215.121 72.8253 213.609 77.6717 213.056 80.9664C212.424 77.7076 210.669 72.9049 208.926 68.9298L207.021 64.2465H192.881L190.975 68.9179C189.228 72.8969 187.482 77.6956 186.845 80.9544C186.288 77.6598 184.78 72.8134 183.511 68.8781L181.999 64.2346H166.112L179.377 92.036H193.438L195.98 85.9998C197.806 81.7105 199.473 76.5059 199.791 74.4806C200.11 76.5059 201.781 81.7105 203.607 85.9998L206.145 92.036H220.365L233.63 64.2346V64.2465Z" stroke="#EEE7DD" stroke-width="1.18" stroke-miterlimit="4.72"/>
</svg>
