<svg width="915" height="456" viewBox="0 0 915 456" fill="none" xmlns="http://www.w3.org/2000/svg">
<mask id="mask0_889_12756" style="mask-type:alpha" maskUnits="userSpaceOnUse" x="0" y="0" width="915" height="456">
<path fill-rule="evenodd" clip-rule="evenodd" d="M915 16C915 7.16344 907.837 0 899 0H16C7.16344 0 0 7.16344 0 16V232.805V344.937V439.999C0 448.836 7.16343 455.999 16 455.999H377.111C385.948 455.999 393.111 448.836 393.111 439.999V360.937C393.111 352.1 400.275 344.937 409.111 344.937H899C907.837 344.937 915 337.773 915 328.937V16Z" fill="#E0E1D2"/>
<path fill-rule="evenodd" clip-rule="evenodd" d="M915 16C915 7.16344 907.837 0 899 0H16C7.16344 0 0 7.16344 0 16V232.805V344.937V439.999C0 448.836 7.16343 455.999 16 455.999H377.111C385.948 455.999 393.111 448.836 393.111 439.999V360.937C393.111 352.1 400.275 344.937 409.111 344.937H899C907.837 344.937 915 337.773 915 328.937V16Z" fill="#474844"/>
</mask>
<g mask="url(#mask0_889_12756)">
<rect x="-15" y="-9" width="930" height="465" fill="#D9D9D9"/>
</g>
</svg>
