<svg width="151" height="32" viewBox="0 0 151 32" fill="none" xmlns="http://www.w3.org/2000/svg">
<g clip-path="url(#clip0_282_2154)">
<path d="M3.96279 0.798828H11.7321C14.495 0.798828 16.5088 1.5297 17.7734 2.99146C19.038 4.45321 19.6703 6.36279 19.6703 8.72018C19.6883 10.9179 19.1273 13.0817 18.0438 14.9939C16.9594 16.9119 15.6779 18.1793 14.1993 18.7961C12.8651 19.3773 11.4296 19.6902 9.97457 19.7171H0L3.96279 0.798828ZM6.75955 15.5347H9.17187C10.7744 15.5347 11.9658 14.7094 12.746 13.059C13.5114 11.5223 13.9201 9.83266 13.9416 8.11605C13.9876 7.29237 13.7489 6.47792 13.2656 5.80935C12.8122 5.24605 12.001 4.9644 10.8322 4.9644H8.95641L6.75955 15.5347Z" fill="white"/>
<path d="M34.4844 16.2048C33.8187 17.4802 32.7696 18.5146 31.4849 19.1621C30.0233 19.8082 28.4347 20.1158 26.8377 20.062C24.1367 20.062 22.2158 19.4522 21.0751 18.2327C19.9463 17.0228 19.3392 15.4171 19.3853 13.763C19.3787 12.5654 19.6537 11.3831 20.188 10.3114C20.6998 9.25622 21.4401 8.32828 22.3552 7.59486C23.1472 6.9264 24.0651 6.42359 25.0548 6.11621C26.0687 5.84627 27.1152 5.71831 28.1642 5.73598C30.7216 5.73598 32.5523 6.29083 33.6564 7.40052C34.199 7.93192 34.6267 8.56908 34.9131 9.27254C35.1994 9.97599 35.3382 10.7308 35.3209 11.4901C35.2755 12.4143 35.1597 13.3337 34.9745 14.2403H24.5014C24.6479 16.0739 25.4703 16.9906 26.9686 16.9906C27.4444 17.0028 27.9157 16.8954 28.3393 16.6785C28.763 16.4615 29.1254 16.1418 29.3936 15.7486L34.4844 16.2048ZM30.0949 11.6759C30.1639 11.4199 30.1952 11.1552 30.1879 10.8901C30.2116 10.5947 30.1685 10.2978 30.0617 10.0213C29.9549 9.74482 29.7872 9.49596 29.5711 9.2932C29.1398 8.93247 28.591 8.743 28.029 8.76088C27.3654 8.76822 26.7294 9.02805 26.2504 9.48754C25.6429 10.0838 25.2129 10.837 25.0084 11.6633L30.0949 11.6759Z" fill="white"/>
<path d="M43.96 0.798828L39.9339 19.7171H34.6445L38.696 0.798828H43.96Z" fill="white"/>
<path d="M53.3663 6.02506L52.5678 9.78084H49.8176L48.8121 14.6224C48.7398 14.833 48.704 15.0545 48.7065 15.2772C48.7065 15.8982 49.1289 16.2066 49.9316 16.2066C50.4793 16.1669 51.0231 16.085 51.5581 15.9616L50.7723 19.7174C49.6181 19.8958 48.4542 20.0044 47.2869 20.0427C45.8167 20.0427 44.7732 19.6892 44.1564 18.9823C43.5729 18.3532 43.2445 17.5294 43.2354 16.6714C43.3084 15.9286 43.4326 15.1917 43.6072 14.4661L44.5874 9.78084H42.7031L43.4805 6.02506H45.4027L45.8548 3.88313L51.7271 0.951172L50.6414 6.02084L53.3663 6.02506Z" fill="white"/>
<path d="M53.6984 9.78C53.8392 9.156 54.1044 8.56683 54.4783 8.04778C54.8521 7.52873 55.3269 7.0905 55.8742 6.75932C57.0008 6.05239 58.754 5.70033 61.134 5.70314C63.8265 5.70314 65.6445 6.03971 66.5881 6.71285C67.0533 7.04706 67.4266 7.49337 67.6732 8.01036C67.9199 8.52735 68.032 9.09827 67.9991 9.67016C67.9106 11.1146 67.6727 12.5459 67.2894 13.9413C66.9436 15.2152 66.7229 16.5198 66.6303 17.8365C66.6354 18.4834 66.7497 19.1247 66.9683 19.7334H61.8437C61.7303 19.2188 61.6751 18.693 61.6789 18.1661C60.4441 19.3641 58.7944 20.0391 57.074 20.0503C55.3419 20.0503 54.0984 19.6461 53.3436 18.8378C52.6088 18.0863 52.2004 17.0751 52.2071 16.0241C52.2071 14.8074 52.5451 13.8822 53.221 13.2485C53.921 12.5987 54.7838 12.1505 55.7179 11.9515C57.0549 11.6691 58.4079 11.4687 59.7694 11.3516C60.7952 11.269 61.8134 11.1094 62.8154 10.8742C62.9038 10.5716 62.9562 10.2596 62.9717 9.94476C62.9723 9.76898 62.9236 9.59656 62.8309 9.44717C62.7383 9.29777 62.6056 9.17741 62.4478 9.09982C62.0218 8.87504 61.5433 8.76854 61.0621 8.79141C60.5577 8.77138 60.0557 8.86976 59.5962 9.07869C59.142 9.36662 58.7947 9.7955 58.6076 10.2996L53.6984 9.78ZM62.2197 13.5822C59.8003 13.9878 58.3794 14.3455 57.957 14.6553C57.7707 14.7725 57.6159 14.9334 57.5062 15.1242C57.3965 15.3149 57.3351 15.5296 57.3275 15.7495C57.317 15.946 57.3524 16.1421 57.4309 16.3225C57.5093 16.5029 57.6287 16.6625 57.7795 16.7888C58.1081 17.0518 58.5208 17.1869 58.9413 17.169C59.6706 17.143 60.367 16.8585 60.9058 16.3663C61.5564 15.8298 61.9958 14.9046 62.2197 13.5865V13.5822Z" fill="white"/>
<path d="M90.073 0.798828L86.0089 19.7171H80.1365L81.7757 12.0281H75.4386L73.8248 19.7171H67.9102L71.9743 0.798828H77.8467L76.4145 7.48234H82.7516L84.2345 0.798828H90.073Z" fill="white"/>
<path d="M97.3528 5.71629C99.8032 5.71629 101.578 6.3331 102.714 7.57517C103.816 8.75252 104.422 10.3098 104.404 11.9224C104.385 13.2671 104.054 14.589 103.436 15.7838C102.793 17.0842 101.781 18.1659 100.526 18.8932C99.064 19.6999 97.4117 20.0969 95.7432 20.0423C93.3436 20.0423 91.5706 19.4509 90.4243 18.2679C89.86 17.6814 89.4186 16.9879 89.1262 16.2283C88.8338 15.4686 88.6963 14.6582 88.7217 13.8447C88.7256 12.4424 89.0784 11.0631 89.7483 9.83117C90.4164 8.55488 91.4448 7.50302 92.7056 6.80627C94.1348 6.04823 95.7357 5.67275 97.3528 5.71629V5.71629ZM96.0727 16.4767C97.0557 16.4767 97.8345 15.9753 98.409 14.9727C98.9825 13.9551 99.2742 12.803 99.254 11.6351C99.254 10.7479 99.0343 10.1269 98.5949 9.7678C98.1935 9.43772 97.6908 9.25573 97.1712 9.25238C96.6539 9.23613 96.1429 9.36988 95.6999 9.63749C95.2568 9.9051 94.9007 10.2951 94.6744 10.7606C94.1337 11.6995 93.8428 12.7613 93.8294 13.8447C93.805 14.5343 94.0368 15.2085 94.48 15.7373C94.6733 15.9718 94.9168 16.16 95.1924 16.2879C95.468 16.4159 95.7689 16.4804 96.0727 16.4767V16.4767Z" fill="white"/>
<path d="M121.246 6.02344L118.289 19.7158H113.346L113.823 17.6034L113.76 17.5527C113.121 18.3335 112.314 18.9606 111.4 19.3877C110.486 19.8148 109.488 20.0308 108.479 20.0199C107.211 20.0199 106.282 19.6989 105.661 19.0567C105.357 18.7536 105.117 18.3924 104.956 17.9946C104.795 17.5968 104.716 17.1707 104.723 16.7416C104.806 15.5918 104.987 14.4511 105.264 13.3322L106.882 6.02344H112.137L110.684 12.7069L110.325 14.418C110.294 14.6121 110.279 14.8086 110.283 15.0052V15.0432C110.283 15.7868 110.617 16.1543 111.288 16.1543C111.693 16.148 112.09 16.0464 112.447 15.8577C112.805 15.6691 113.112 15.3987 113.346 15.0686C114.015 14.1465 114.464 13.0825 114.655 11.9592L115.923 6.04456L121.246 6.02344Z" fill="white"/>
<path d="M135.086 9.29351L130.168 9.8216C130.019 8.99637 129.403 8.58375 128.322 8.58375C127.816 8.54885 127.312 8.66975 126.877 8.93018C126.733 9.01369 126.612 9.13215 126.525 9.27464C126.439 9.41714 126.39 9.57908 126.383 9.74555C126.383 9.90239 126.421 10.0568 126.495 10.1953C126.569 10.3338 126.675 10.4521 126.805 10.5398C127.087 10.751 127.858 10.9468 129.12 11.127C131.143 11.4284 132.487 11.8819 133.155 12.4874C133.488 12.796 133.751 13.1736 133.924 13.5938C134.096 14.014 134.176 14.4669 134.156 14.9208C134.156 16.3291 133.501 17.5331 132.192 18.533C130.882 19.5328 128.895 20.0356 126.231 20.0412C124.045 20.0412 122.444 19.7229 121.427 19.0864C120.413 18.4485 119.817 17.3965 119.648 15.9348L124.836 15.4827C125.059 16.5952 125.79 17.1501 127.029 17.1473C127.563 17.1589 128.09 17.0307 128.558 16.7755C128.76 16.6789 128.931 16.5265 129.049 16.3364C129.167 16.1463 129.228 15.9263 129.226 15.7024C129.243 15.5296 129.206 15.3557 129.121 15.2046C129.035 15.0534 128.905 14.9322 128.748 14.8575C128.165 14.6443 127.558 14.5025 126.94 14.435C124.898 14.1139 123.517 13.6323 122.796 12.9901C122.449 12.6891 122.172 12.3155 121.985 11.8957C121.798 11.476 121.706 11.0203 121.714 10.5609C121.723 9.70627 122.002 8.87636 122.513 8.19086C123.139 7.36125 123.994 6.73159 124.972 6.37845C126.266 5.90175 127.64 5.67662 129.019 5.71517C130.852 5.71517 132.255 5.98133 133.244 6.52209C133.743 6.81147 134.169 7.21203 134.488 7.69266C134.808 8.1733 135.012 8.72109 135.086 9.29351V9.29351Z" fill="white"/>
<path d="M150.177 16.2048C149.511 17.4802 148.462 18.5145 147.177 19.1621C145.716 19.8081 144.127 20.1157 142.53 20.0619C139.832 20.0619 137.911 19.4522 136.768 18.2326C135.631 17.0261 135.016 15.42 135.057 13.7629C135.05 12.5654 135.325 11.383 135.859 10.3113C136.371 9.25615 137.111 8.32821 138.027 7.59479C138.818 6.92729 139.734 6.42457 140.722 6.11614C141.737 5.84662 142.785 5.71867 143.836 5.73591C146.39 5.73591 148.221 6.29076 149.328 7.40045C149.87 7.93184 150.298 8.56901 150.584 9.27247C150.871 9.97592 151.01 10.7307 150.992 11.49C150.947 12.4142 150.831 13.3336 150.646 14.2403H140.211C140.36 16.0738 141.182 16.9906 142.678 16.9906C143.154 17.0023 143.625 16.8948 144.048 16.6779C144.472 16.4609 144.834 16.1414 145.103 15.7485L150.177 16.2048ZM145.787 11.6759C145.855 11.4196 145.885 11.1549 145.876 10.8901C145.899 10.594 145.854 10.2966 145.746 10.0201C145.638 9.7436 145.468 9.4951 145.251 9.29313C144.819 8.9331 144.271 8.74372 143.709 8.76081C143.051 8.77605 142.423 9.04024 141.951 9.50014C141.333 10.0921 140.894 10.8461 140.684 11.6759H145.787Z" fill="white"/>
<path d="M76.9942 30.3138H75.9337L74.8022 27.5227H72.5393L71.9558 30.3138H70.9766L72.5292 22.9157H75.335C76.1028 22.9157 76.6931 23.0894 77.1058 23.4367C77.5185 23.7876 77.7248 24.2484 77.7248 24.8194C77.7248 25.2321 77.6571 25.5967 77.5218 25.9131C77.3831 26.2364 77.2225 26.4806 77.0398 26.6457C76.8572 26.8074 76.6694 26.9449 76.4766 27.0584C76.2872 27.1685 76.1248 27.239 75.9895 27.27L75.7815 27.3215L76.9942 30.3138ZM73.3156 23.803L72.727 26.6354H74.5536C75.2301 26.6354 75.7544 26.4841 76.1265 26.1814C76.4986 25.8753 76.6846 25.4574 76.6846 24.9277C76.6846 24.5803 76.5544 24.3069 76.294 24.1074C76.0335 23.9045 75.6513 23.803 75.1473 23.803H73.3156Z" fill="white"/>
<path d="M84.062 27.208C84.062 27.5142 84.0181 27.7927 83.9301 28.0438L83.8794 28.1573H79.3129C79.2858 28.5081 79.3975 28.8314 79.6478 29.1272C79.8981 29.4265 80.304 29.5761 80.8655 29.5761C81.2038 29.5761 81.5133 29.5193 81.794 29.4058C82.0782 29.2889 82.2777 29.1754 82.3927 29.0653L82.5551 28.8899H83.6054C83.5885 28.9209 83.558 28.9742 83.5141 29.0498C83.4667 29.1289 83.3686 29.251 83.2198 29.4161C83.0709 29.5847 82.895 29.7412 82.6921 29.8856C82.506 30.0197 82.2405 30.1418 81.8955 30.2519C81.5674 30.362 81.1987 30.417 80.7894 30.417C80.0621 30.417 79.4719 30.2124 79.0186 29.8031C78.5654 29.3938 78.3387 28.8383 78.3387 28.1367C78.3387 27.2493 78.6601 26.5098 79.3028 25.9183C79.9387 25.3267 80.7251 25.0309 81.6621 25.0309C82.3589 25.0309 82.9339 25.2304 83.3872 25.6294C83.8371 26.0249 84.062 26.5511 84.062 27.208ZM81.5911 25.877C81.0228 25.877 80.5374 26.0404 80.1349 26.3671C79.7323 26.6939 79.4973 27.0154 79.4296 27.3319H83.1284C83.1284 26.8744 82.9864 26.5167 82.7022 26.2588C82.4147 26.0043 82.0443 25.877 81.5911 25.877Z" fill="white"/>
<path d="M92.7738 30.3138H91.8808L92.444 27.6414C92.4982 27.4007 92.5252 27.1651 92.5252 26.9346C92.5252 26.2295 92.1802 25.877 91.4902 25.877C90.6174 25.877 90.0559 26.4651 89.8056 27.6414L89.2424 30.3138H88.3494L88.9126 27.6414C88.9668 27.4007 88.9938 27.1651 88.9938 26.9346C88.9938 26.2295 88.6471 25.877 87.9537 25.877C87.0776 25.877 86.5161 26.4651 86.2692 27.6414L85.711 30.3138H84.818L85.8988 25.1341H86.7918L86.6243 25.9286H86.6751C86.6784 25.9252 86.6852 25.9131 86.6954 25.8925C86.7055 25.8718 86.7157 25.8529 86.7258 25.8357C86.7393 25.8151 86.7613 25.7859 86.7918 25.748C86.8222 25.7067 86.8577 25.662 86.8983 25.6139C86.9863 25.5141 87.086 25.423 87.1977 25.3405C87.3161 25.2545 87.4734 25.1822 87.6695 25.1238C87.8657 25.0619 88.0721 25.0309 88.2885 25.0309C89.009 25.0309 89.5215 25.3301 89.8259 25.9286H89.8868C89.9409 25.8392 90.0289 25.7343 90.1507 25.6139C90.2555 25.5141 90.3654 25.423 90.4805 25.3405C90.609 25.2545 90.7764 25.1822 90.9828 25.1238C91.1891 25.0619 91.3988 25.0309 91.6119 25.0309C92.1734 25.0309 92.625 25.1788 92.9666 25.4746C93.3049 25.7669 93.474 26.19 93.474 26.7437C93.474 26.9157 93.4419 27.1444 93.3776 27.4299L92.7738 30.3138Z" fill="white"/>
<path d="M100.268 27.208C100.268 27.5142 100.224 27.7927 100.136 28.0438L100.085 28.1573H95.5188C95.4917 28.5081 95.6034 28.8314 95.8537 29.1272C96.104 29.4265 96.5099 29.5761 97.0714 29.5761C97.4096 29.5761 97.7192 29.5193 97.9999 29.4058C98.284 29.2889 98.4836 29.1754 98.5986 29.0653L98.761 28.8899H99.8113C99.7944 28.9209 99.7639 28.9742 99.7199 29.0498C99.6726 29.1289 99.5745 29.251 99.4257 29.4161C99.2768 29.5847 99.1009 29.7412 98.898 29.8856C98.7119 30.0197 98.4464 30.1418 98.1014 30.2519C97.7733 30.362 97.4046 30.417 96.9953 30.417C96.268 30.417 95.6778 30.2124 95.2245 29.8031C94.7712 29.3938 94.5446 28.8383 94.5446 28.1367C94.5446 27.2493 94.866 26.5098 95.5086 25.9183C96.1446 25.3267 96.931 25.0309 97.868 25.0309C98.5648 25.0309 99.1398 25.2304 99.5931 25.6294C100.043 26.0249 100.268 26.5511 100.268 27.208ZM97.797 25.877C97.2287 25.877 96.7433 26.0404 96.3408 26.3671C95.9382 26.6939 95.7031 27.0154 95.6355 27.3319H99.3343C99.3343 26.8744 99.1923 26.5167 98.9081 26.2588C98.6206 26.0043 98.2502 25.877 97.797 25.877Z" fill="white"/>
<path d="M106.133 30.3138H105.24L105.803 27.6414C105.844 27.4419 105.864 27.2614 105.864 27.0997C105.864 26.2811 105.411 25.8736 104.505 25.877C103.967 25.877 103.524 26.0387 103.175 26.362C102.82 26.6887 102.587 27.1152 102.475 27.6414L101.917 30.3138H101.024L102.105 25.1341H102.998L102.83 25.9286H102.881C102.932 25.8495 103.026 25.7446 103.165 25.6139C103.277 25.5107 103.398 25.4196 103.53 25.3405C103.676 25.2545 103.867 25.1822 104.104 25.1238C104.344 25.0619 104.587 25.0309 104.834 25.0309C105.389 25.0309 105.858 25.1908 106.24 25.5107C106.619 25.8306 106.808 26.2794 106.808 26.8572C106.808 27.0051 106.784 27.196 106.737 27.4299L106.133 30.3138Z" fill="white"/>
<path d="M110.182 30.417C109.472 30.417 108.926 30.2124 108.543 29.8031C108.161 29.3938 107.97 28.8916 107.97 28.2966C107.97 28.0077 108.011 27.7326 108.092 27.4712C108.173 27.2063 108.283 26.9828 108.422 26.8005C108.567 26.6113 108.718 26.4462 108.873 26.3052C109.195 26.0129 109.614 25.7704 110.131 25.5778L110.258 25.5468V25.5159L109.228 23.7824L109.416 22.9157H114.424L114.236 23.7824H110.38V23.8134L112.531 27.4402L112.998 25.392H113.861L113.125 28.3998L113.988 29.8908L113.216 30.417L112.587 29.3955H112.562C112.558 29.3989 112.547 29.4144 112.526 29.4419C112.506 29.466 112.489 29.4866 112.476 29.5038C112.438 29.5554 112.347 29.6363 112.202 29.7463C112.049 29.8701 111.894 29.9733 111.735 30.0559C111.566 30.1487 111.342 30.2313 111.065 30.3035C110.791 30.3792 110.497 30.417 110.182 30.417ZM110.36 29.5554C110.715 29.5554 111.043 29.478 111.344 29.3233C111.642 29.1719 111.848 29.0223 111.963 28.8744L112.141 28.6526L110.715 26.2588C110.668 26.2657 110.603 26.2811 110.522 26.3052C110.421 26.3362 110.279 26.3963 110.096 26.4858C109.903 26.5786 109.724 26.6956 109.558 26.8366C109.399 26.9707 109.257 27.1633 109.132 27.4144C109.003 27.6689 108.939 27.9458 108.939 28.245C108.939 28.6337 109.063 28.9484 109.31 29.1891C109.556 29.4333 109.907 29.5554 110.36 29.5554Z" fill="white"/>
<path d="M121.842 30.3138H120.913L121.228 28.9002H121.187C121.171 28.9312 121.14 28.9845 121.096 29.0602C121.035 29.1496 120.935 29.2717 120.797 29.4265C120.641 29.6019 120.469 29.7566 120.279 29.8908C120.09 30.0215 119.834 30.1418 119.513 30.2519C119.202 30.362 118.862 30.417 118.493 30.417C117.526 30.417 116.761 30.1367 116.2 29.5761C115.632 29.0189 115.347 28.2932 115.347 27.3989C115.347 26.0988 115.762 25.0086 116.591 24.1281C117.419 23.251 118.463 22.8125 119.721 22.8125C120.235 22.8125 120.699 22.8933 121.111 23.055C121.527 23.2166 121.855 23.435 122.096 23.7102C122.556 24.2433 122.786 24.8073 122.786 25.4024C122.786 25.5021 122.782 25.5898 122.776 25.6655H121.776C121.769 25.5451 121.762 25.4557 121.756 25.3972C121.749 25.3353 121.73 25.2476 121.7 25.1341C121.673 25.0206 121.632 24.9019 121.578 24.7781C121.494 24.5855 121.38 24.4118 121.238 24.257C121.089 24.0988 120.88 23.9699 120.609 23.8701C120.342 23.7704 120.039 23.7205 119.701 23.7205C118.73 23.7205 117.935 24.0679 117.316 24.7626C116.694 25.4574 116.382 26.2966 116.382 27.2803C116.382 27.9475 116.565 28.4841 116.93 28.8899C117.289 29.3026 117.82 29.509 118.524 29.509C118.906 29.509 119.264 29.4351 119.599 29.2872C119.938 29.1393 120.218 28.9518 120.442 28.7248C120.902 28.2571 121.174 27.8254 121.258 27.4299H118.869L119.056 26.5425H122.628L121.842 30.3138Z" fill="white"/>
<path d="M129.432 27.208C129.432 27.5142 129.388 27.7927 129.301 28.0438L129.25 28.1573H124.683C124.656 28.5081 124.768 28.8314 125.018 29.1272C125.268 29.4265 125.674 29.5761 126.236 29.5761C126.574 29.5761 126.884 29.5193 127.164 29.4058C127.449 29.2889 127.648 29.1754 127.763 29.0653L127.925 28.8899H128.976C128.959 28.9209 128.928 28.9742 128.884 29.0498C128.837 29.1289 128.739 29.251 128.59 29.4161C128.441 29.5847 128.265 29.7412 128.062 29.8856C127.876 30.0197 127.611 30.1418 127.266 30.2519C126.938 30.362 126.569 30.417 126.16 30.417C125.433 30.417 124.842 30.2124 124.389 29.8031C123.936 29.3938 123.709 28.8383 123.709 28.1367C123.709 27.2493 124.03 26.5098 124.673 25.9183C125.309 25.3267 126.096 25.0309 127.032 25.0309C127.729 25.0309 128.304 25.2304 128.758 25.6294C129.207 26.0249 129.432 26.5511 129.432 27.208ZM126.961 25.877C126.393 25.877 125.908 26.0404 125.505 26.3671C125.103 26.6939 124.868 27.0154 124.8 27.3319H128.499C128.499 26.8744 128.357 26.5167 128.073 26.2588C127.785 26.0043 127.415 25.877 126.961 25.877Z" fill="white"/>
<path d="M134.953 25.1341H135.917L132.761 30.3138H131.426L130.432 25.1341H131.335L132.188 29.5967H132.228L134.953 25.1341Z" fill="white"/>
<path d="M141.752 27.208C141.752 27.5142 141.708 27.7927 141.62 28.0438L141.569 28.1573H137.003C136.976 28.5081 137.087 28.8314 137.337 29.1272C137.588 29.4265 137.994 29.5761 138.555 29.5761C138.893 29.5761 139.203 29.5193 139.484 29.4058C139.768 29.2889 139.967 29.1754 140.082 29.0653L140.245 28.8899H141.295C141.278 28.9209 141.248 28.9742 141.204 29.0498C141.156 29.1289 141.058 29.251 140.909 29.4161C140.761 29.5847 140.585 29.7412 140.382 29.8856C140.196 30.0197 139.93 30.1418 139.585 30.2519C139.257 30.362 138.888 30.417 138.479 30.417C137.752 30.417 137.162 30.2124 136.708 29.8031C136.255 29.3938 136.028 28.8383 136.028 28.1367C136.028 27.2493 136.35 26.5098 136.992 25.9183C137.628 25.3267 138.415 25.0309 139.352 25.0309C140.049 25.0309 140.624 25.2304 141.077 25.6294C141.527 26.0249 141.752 26.5511 141.752 27.208ZM139.281 25.877C138.713 25.877 138.227 26.0404 137.825 26.3671C137.422 26.6939 137.187 27.0154 137.119 27.3319H140.818C140.818 26.8744 140.676 26.5167 140.392 26.2588C140.104 26.0043 139.734 25.877 139.281 25.877Z" fill="white"/>
<path d="M142.848 28.699L144.055 22.9157H144.948L143.776 28.5288C143.739 28.7283 143.717 28.9037 143.71 29.055C143.71 29.2648 143.759 29.4127 143.857 29.4987C143.955 29.5847 144.111 29.6277 144.324 29.6277C144.483 29.6277 144.615 29.607 144.72 29.5657L144.781 29.54L144.613 30.3241C144.465 30.386 144.258 30.417 143.994 30.417C143.612 30.417 143.313 30.319 143.096 30.1229C142.883 29.9234 142.777 29.6483 142.777 29.2975C142.777 29.1221 142.8 28.9226 142.848 28.699Z" fill="white"/>
<path d="M147.871 29.5761C148.196 29.5761 148.547 29.5262 148.926 29.4265C149.136 29.3714 149.303 29.2768 149.428 29.1427C149.554 29.0051 149.616 28.8418 149.616 28.6526C149.616 28.4772 149.496 28.3499 149.256 28.2708C149.019 28.1952 148.727 28.1418 148.378 28.1109C148.057 28.0834 147.712 28.0387 147.343 27.9767C146.991 27.9183 146.697 27.7945 146.46 27.6053C146.217 27.4161 146.095 27.153 146.095 26.816C146.095 26.2106 146.335 25.7618 146.815 25.4694C147.296 25.1771 147.925 25.0309 148.703 25.0309C150.117 25.0309 150.824 25.4883 150.824 26.4032C150.824 26.5511 150.809 26.6921 150.778 26.8263H149.865C149.878 26.7747 149.885 26.6973 149.885 26.5941C149.885 26.116 149.466 25.877 148.627 25.877C148.089 25.877 147.688 25.9509 147.424 26.0988C147.16 26.2433 147.029 26.4411 147.029 26.6921C147.029 26.8332 147.111 26.9467 147.277 27.0326C147.443 27.1152 147.664 27.1685 147.942 27.1926C148.206 27.2166 148.49 27.2528 148.794 27.3009C149.119 27.3559 149.403 27.4144 149.647 27.4763C149.907 27.5417 150.125 27.6672 150.301 27.8529C150.474 28.0352 150.56 28.2674 150.56 28.5494C150.56 29.1754 150.298 29.6431 149.774 29.9527C149.246 30.2622 148.588 30.417 147.8 30.417C147.123 30.417 146.579 30.3035 146.166 30.0765C145.757 29.8564 145.552 29.5056 145.552 29.024C145.552 28.883 145.577 28.6939 145.628 28.4565H146.541C146.508 28.6492 146.491 28.7712 146.491 28.8228C146.491 29.325 146.951 29.5761 147.871 29.5761Z" fill="white"/>
<path d="M148.955 3.15237e-06C149.313 -0.000619641 149.665 0.0910484 149.977 0.266161C150.302 0.436135 150.568 0.699544 150.742 1.02239C150.921 1.33351 151.015 1.68601 151.015 2.04477C151.015 2.40353 150.921 2.75603 150.742 3.06715C150.566 3.38801 150.3 3.65074 149.977 3.82338C149.667 4.00046 149.316 4.0936 148.959 4.0936C148.602 4.0936 148.251 4.00046 147.941 3.82338C147.621 3.64836 147.357 3.38612 147.181 3.06715C147.006 2.75605 146.913 2.40577 146.91 2.04899C146.913 1.68898 147.007 1.3356 147.185 1.02239C147.36 0.700777 147.626 0.437793 147.949 0.266161C148.257 0.0938351 148.603 0.00226055 148.955 3.15237e-06V3.15237e-06ZM148.955 0.337981C148.659 0.33953 148.368 0.416597 148.11 0.561891C147.841 0.705553 147.619 0.924226 147.472 1.19137C147.326 1.44914 147.247 1.73989 147.244 2.03632C147.243 2.33273 147.32 2.62413 147.468 2.88126C147.617 3.14544 147.836 3.36327 148.102 3.51075C148.358 3.65907 148.65 3.73715 148.946 3.73715C149.243 3.73715 149.535 3.65907 149.791 3.51075C150.057 3.36327 150.276 3.14544 150.425 2.88126C150.57 2.62311 150.647 2.33238 150.649 2.03632C150.646 1.73928 150.566 1.44808 150.417 1.19137C150.271 0.923324 150.049 0.704347 149.779 0.561891C149.527 0.419858 149.244 0.342895 148.955 0.337981V0.337981ZM148.059 3.18122V0.975914H148.816C149.004 0.966954 149.192 0.988352 149.373 1.03928C149.488 1.07536 149.586 1.15 149.652 1.25052C149.729 1.36307 149.764 1.49878 149.752 1.63442C149.739 1.77006 149.68 1.8972 149.584 1.99407C149.463 2.11346 149.302 2.18539 149.132 2.19686C149.203 2.22076 149.268 2.25967 149.322 2.31093C149.444 2.44103 149.553 2.58251 149.648 2.7334L149.914 3.15587H149.491L149.297 2.80522C149.204 2.61352 149.076 2.44032 148.921 2.29403C148.838 2.23734 148.738 2.21053 148.638 2.21798H148.431V3.18122H148.059ZM148.414 1.93915H148.837C148.984 1.95405 149.132 1.92148 149.259 1.84621C149.295 1.81736 149.323 1.78058 149.342 1.73878C149.362 1.69698 149.371 1.65131 149.369 1.6054C149.371 1.5418 149.351 1.47939 149.314 1.42796C149.278 1.37576 149.226 1.33596 149.166 1.31389C149.049 1.28237 148.928 1.26954 148.807 1.27587H148.406L148.414 1.93915Z" fill="white"/>
</g>
<defs>
<clipPath id="clip0_282_2154">
<rect width="151" height="32" fill="white"/>
</clipPath>
</defs>
</svg>
