<svg width="128" height="26" viewBox="0 0 128 26" fill="none" xmlns="http://www.w3.org/2000/svg">
<g clip-path="url(#clip0_328_2579)">
<path d="M3.35919 0.669922H9.94505C12.2872 0.669922 13.9942 1.28356 15.0662 2.51085C16.1382 3.73813 16.6742 5.34141 16.6742 7.32067C16.6894 9.16591 16.2139 10.9826 15.2954 12.5881C14.3762 14.1984 13.2899 15.2626 12.0365 15.7804C10.9055 16.2683 9.68865 16.5311 8.45526 16.5537H0L3.35919 0.669922ZM5.72995 13.0421H7.77483C9.13331 13.0421 10.1432 12.3492 10.8045 10.9635C11.4534 9.67332 11.7998 8.25471 11.818 6.81344C11.857 6.12188 11.6547 5.43808 11.245 4.87674C10.8607 4.4038 10.1731 4.16733 9.18225 4.16733H7.59219L5.72995 13.0421Z" fill="#D9251C"/>
<path d="M29.231 13.6074C28.6667 14.6782 27.7774 15.5466 26.6884 16.0903C25.4494 16.6327 24.1028 16.891 22.749 16.8459C20.4594 16.8459 18.8312 16.3339 17.8642 15.31C16.9073 14.2942 16.3927 12.946 16.4318 11.5572C16.4262 10.5517 16.6593 9.55907 17.1122 8.65923C17.5461 7.77334 18.1736 6.99424 18.9494 6.37847C19.6207 5.81723 20.3988 5.39507 21.2378 5.13699C22.0972 4.91036 22.9843 4.80292 23.8735 4.81776C26.0414 4.81776 27.5932 5.28361 28.5291 6.2153C28.9891 6.66146 29.3517 7.19642 29.5944 7.78704C29.8371 8.37766 29.9548 9.01136 29.9401 9.64886C29.9016 10.4248 29.8035 11.1968 29.6465 11.958H20.7686C20.8928 13.4974 21.5899 14.2671 22.8601 14.2671C23.2634 14.2773 23.6629 14.1872 24.022 14.005C24.3811 13.8229 24.6883 13.5544 24.9157 13.2243L29.231 13.6074ZM25.5102 9.80493C25.5686 9.58997 25.5952 9.36772 25.5889 9.14518C25.6091 8.89714 25.5725 8.64781 25.482 8.41569C25.3915 8.18357 25.2493 7.97463 25.0661 7.80439C24.7005 7.50152 24.2353 7.34244 23.7589 7.35746C23.1963 7.36362 22.6572 7.58177 22.2512 7.96755C21.7363 8.46816 21.3718 9.10056 21.1984 9.79429L25.5102 9.80493Z" fill="#D9251C"/>
<path d="M37.2638 0.669922L33.8509 16.5537H29.3672L32.8016 0.669922H37.2638Z" fill="#D9251C"/>
<path d="M45.2382 5.05886L44.5614 8.2122H42.23L41.3777 12.2771C41.3164 12.454 41.2861 12.6399 41.2881 12.8269C41.2881 13.3484 41.6463 13.6073 42.3267 13.6073C42.7909 13.5739 43.2519 13.5052 43.7055 13.4016L43.0394 16.5549C42.061 16.7047 41.0743 16.7959 40.0848 16.828C38.8386 16.828 37.954 16.5313 37.4312 15.9377C36.9365 15.4096 36.6581 14.7178 36.6505 13.9975C36.7123 13.3738 36.8176 12.7551 36.9656 12.1459L37.7964 8.2122H36.1992L36.8582 5.05886H38.4876L38.8708 3.26049L43.8487 0.798828L42.9283 5.05531L45.2382 5.05886Z" fill="#D9251C"/>
<path d="M45.5221 8.212C45.6413 7.68809 45.8662 7.19342 46.1831 6.75763C46.5 6.32184 46.9025 5.9539 47.3664 5.67584C48.3214 5.0823 49.8076 4.78671 51.825 4.78908C54.1074 4.78908 55.6486 5.07166 56.4484 5.63683C56.8427 5.91743 57.1591 6.29215 57.3682 6.72621C57.5773 7.16028 57.6724 7.63962 57.6445 8.11977C57.5694 9.3325 57.3678 10.5343 57.0428 11.7059C56.7498 12.7754 56.5626 13.8707 56.4842 14.9763C56.4885 15.5193 56.5853 16.0578 56.7707 16.5689H52.4266C52.3306 16.1368 52.2837 15.6954 52.287 15.2529C51.2403 16.2588 49.8418 16.8256 48.3835 16.8349C46.9151 16.8349 45.8611 16.4956 45.2212 15.8169C44.5984 15.1859 44.2522 14.337 44.2579 13.4546C44.2579 12.433 44.5444 11.6562 45.1174 11.1241C45.7107 10.5786 46.4421 10.2023 47.2339 10.0352C48.3672 9.79805 49.5142 9.62984 50.6683 9.53151C51.5379 9.46212 52.401 9.32813 53.2503 9.13069C53.3253 8.87662 53.3697 8.6147 53.3828 8.35033C53.3834 8.20275 53.342 8.05799 53.2635 7.93255C53.185 7.80712 53.0725 7.70607 52.9388 7.64092C52.5776 7.45219 52.172 7.36278 51.7641 7.38198C51.3366 7.36516 50.911 7.44777 50.5214 7.62318C50.1364 7.86493 49.8421 8.22501 49.6834 8.64829L45.5221 8.212ZM52.7454 11.4044C50.6945 11.7449 49.49 12.0452 49.1319 12.3053C48.974 12.4037 48.8428 12.5388 48.7498 12.6989C48.6568 12.8591 48.6048 13.0394 48.5983 13.224C48.5894 13.3889 48.6195 13.5536 48.686 13.7051C48.7525 13.8565 48.8537 13.9906 48.9815 14.0966C49.26 14.3174 49.6099 14.4308 49.9663 14.4158C50.5846 14.394 51.1748 14.1551 51.6316 13.7419C52.1831 13.2914 52.5556 12.5146 52.7454 11.4079V11.4044Z" fill="#D9251C"/>
<path d="M76.3496 0.669922L72.9044 16.5537H67.9265L69.3161 10.098H63.9442L62.5762 16.5537H57.5625L61.0076 0.669922H65.9855L64.7715 6.28138H70.1433L71.4003 0.669922H76.3496Z" fill="#D9251C"/>
<path d="M82.5221 4.79973C84.5992 4.79973 86.1033 5.3176 87.0667 6.36044C88.0009 7.34894 88.5141 8.6564 88.4991 10.0104C88.483 11.1394 88.2022 12.2492 87.679 13.2524C87.134 14.3442 86.2756 15.2524 85.2116 15.863C83.9726 16.5404 82.572 16.8737 81.1576 16.8278C79.1235 16.8278 77.6206 16.3312 76.6489 15.3381C76.1705 14.8456 75.7964 14.2633 75.5485 13.6256C75.3007 12.9878 75.1841 12.3073 75.2057 11.6243C75.2089 10.4469 75.508 9.28888 76.0759 8.25457C76.6422 7.183 77.5139 6.29986 78.5827 5.71487C79.7942 5.07843 81.1513 4.76317 82.5221 4.79973ZM81.437 13.8341C82.2702 13.8341 82.9303 13.4132 83.4174 12.5714C83.9036 11.717 84.1508 10.7497 84.1336 9.76917C84.1336 9.02429 83.9474 8.50287 83.575 8.20137C83.2347 7.92423 82.8086 7.77144 82.3681 7.76862C81.9296 7.75498 81.4964 7.86727 81.1209 8.09196C80.7453 8.31664 80.4434 8.64413 80.2516 9.03493C79.7933 9.82321 79.5467 10.7147 79.5353 11.6243C79.5146 12.2033 79.7111 12.7694 80.0869 13.2134C80.2507 13.4102 80.4571 13.5682 80.6907 13.6756C80.9244 13.7831 81.1794 13.8372 81.437 13.8341Z" fill="#D9251C"/>
<path d="M102.78 5.05859L100.273 16.5546H96.0831L96.4878 14.7811L96.4341 14.7385C95.8924 15.3941 95.2088 15.9206 94.434 16.2792C93.6591 16.6378 92.8127 16.8192 91.9575 16.81C90.8832 16.81 90.0953 16.5404 89.5689 16.0013C89.3113 15.7468 89.1081 15.4435 88.9715 15.1096C88.8349 14.7756 88.7677 14.4178 88.7738 14.0575C88.8439 13.0921 88.9972 12.1345 89.2322 11.195L90.6038 5.05859H95.0589L93.8269 10.6701L93.5225 12.1066C93.4958 12.2696 93.4839 12.4346 93.4867 12.5997V12.6316C93.4867 13.2559 93.7696 13.5645 94.339 13.5645C94.6817 13.5592 95.0182 13.4738 95.3212 13.3154C95.6243 13.157 95.8853 12.93 96.0831 12.6529C96.6508 11.8787 97.0307 10.9854 97.1933 10.0422L98.2676 5.07633L102.78 5.05859Z" fill="#D9251C"/>
<path d="M114.515 7.80479L110.347 8.24818C110.22 7.55532 109.699 7.20889 108.782 7.20889C108.353 7.17958 107.926 7.28109 107.557 7.49975C107.435 7.56986 107.332 7.66932 107.259 7.78895C107.186 7.90859 107.144 8.04456 107.138 8.18433C107.138 8.31601 107.171 8.44567 107.233 8.56193C107.296 8.67819 107.386 8.7775 107.496 8.85118C107.735 9.02853 108.389 9.19288 109.459 9.34422C111.173 9.59724 112.313 9.97796 112.879 10.4864C113.162 10.7455 113.384 11.0625 113.53 11.4153C113.677 11.7681 113.744 12.1483 113.728 12.5295C113.728 13.7118 113.173 14.7228 112.062 15.5622C110.952 16.4017 109.268 16.8238 107.009 16.8285C105.157 16.8285 103.799 16.5613 102.937 16.0269C102.078 15.4913 101.573 14.6081 101.43 13.3808L105.827 13.0012C106.016 13.9353 106.636 14.4012 107.686 14.3988C108.138 14.4085 108.585 14.3009 108.982 14.0866C109.154 14.0055 109.298 13.8776 109.398 13.718C109.498 13.5583 109.551 13.3737 109.548 13.1857C109.563 13.0406 109.531 12.8946 109.459 12.7677C109.387 12.6408 109.277 12.539 109.144 12.4763C108.649 12.2973 108.134 12.1783 107.611 12.1216C105.88 11.852 104.709 11.4476 104.098 10.9085C103.803 10.6557 103.569 10.342 103.41 9.9896C103.252 9.63718 103.174 9.25461 103.181 8.86891C103.188 8.15135 103.425 7.45456 103.858 6.87901C104.389 6.18247 105.113 5.65382 105.942 5.35732C107.039 4.95708 108.204 4.76806 109.373 4.80043C110.927 4.80043 112.116 5.02389 112.954 5.47792C113.377 5.72088 113.738 6.05719 114.009 6.46073C114.28 6.86427 114.453 7.32419 114.515 7.80479Z" fill="#D9251C"/>
<path d="M127.303 13.6073C126.739 14.6781 125.85 15.5466 124.76 16.0903C123.522 16.6327 122.175 16.8909 120.821 16.8458C118.534 16.8458 116.906 16.3338 115.936 15.3099C114.973 14.2969 114.452 12.9484 114.486 11.5571C114.48 10.5517 114.713 9.55901 115.166 8.65917C115.6 7.77328 116.228 6.99418 117.004 6.37841C117.674 5.81797 118.451 5.39589 119.288 5.13693C120.149 4.91064 121.037 4.80322 121.928 4.8177C124.093 4.8177 125.645 5.28355 126.583 6.21524C127.043 6.6614 127.406 7.19636 127.649 7.78698C127.891 8.3776 128.009 9.0113 127.994 9.6488C127.956 10.4248 127.858 11.1967 127.701 11.9579H118.855C118.982 13.4974 119.679 14.2671 120.946 14.2671C121.35 14.2769 121.749 14.1867 122.108 14.0045C122.467 13.8224 122.775 13.5541 123.002 13.2242L127.303 13.6073ZM123.582 9.80487C123.639 9.58969 123.665 9.36748 123.657 9.14512C123.677 8.89653 123.639 8.64685 123.547 8.4147C123.455 8.18254 123.312 7.9739 123.127 7.80433C122.762 7.50205 122.297 7.34305 121.82 7.3574C121.262 7.37019 120.73 7.592 120.331 7.97813C119.806 8.47518 119.434 9.1082 119.256 9.80487H123.582Z" fill="#D9251C"/>
<path d="M58.4414 24.205L59.7342 18.0898H60.5221L61.5606 20.3848C61.8782 21.0942 62.1301 21.6854 62.3163 22.1583C62.4237 22.435 62.5455 22.811 62.6744 23.2827C62.7496 22.7684 62.8463 22.2399 62.9609 21.6901L63.7452 18.0898H64.551L63.2617 24.2014H62.4452L60.916 20.6721C60.6439 20.0478 60.4326 19.5016 60.2786 19.0263C60.2231 19.5173 60.1419 20.0051 60.035 20.4877L59.2543 24.2014L58.4414 24.205Z" fill="white"/>
<path d="M67.5478 23.6557C67.3197 23.8567 67.0626 24.0229 66.785 24.1487C66.5376 24.2547 66.2703 24.3079 66.0007 24.3048C65.6346 24.3212 65.2768 24.1937 65.0052 23.9501C64.8804 23.8304 64.7822 23.6862 64.7169 23.5268C64.6515 23.3674 64.6204 23.1963 64.6255 23.0243C64.6216 22.7942 64.681 22.5673 64.7974 22.3681C64.9096 22.1827 65.0642 22.026 65.2487 21.9105C65.4613 21.7855 65.6958 21.7013 65.9399 21.6622C66.2626 21.6158 66.5879 21.5898 66.9139 21.5842C67.262 21.5833 67.6081 21.5331 67.9418 21.4352C67.9993 21.2716 68.0342 21.1009 68.0456 20.928C68.049 20.8491 68.0332 20.7705 67.9996 20.6989C67.9659 20.6273 67.9154 20.5648 67.8522 20.5165C67.626 20.3615 67.3531 20.2877 67.0787 20.3073C66.8017 20.2952 66.5278 20.3683 66.2944 20.5165C66.0848 20.6643 65.9281 20.8742 65.8467 21.116L65.0768 21.0486C65.21 20.6416 65.4726 20.2883 65.8253 20.0412C66.2077 19.7939 66.6581 19.6699 67.1145 19.6865C67.5851 19.6613 68.0498 19.7993 68.4288 20.0767C68.5446 20.1664 68.6373 20.2819 68.6995 20.4138C68.7618 20.5457 68.7917 20.6903 68.7869 20.8358C68.7832 21.1131 68.7484 21.3891 68.6831 21.6587L68.4324 22.7583C68.3655 23.0387 68.3272 23.3251 68.3178 23.6131C68.3259 23.8155 68.356 24.0165 68.4073 24.2126H67.6374C67.5887 24.0304 67.5587 23.8438 67.5478 23.6557ZM67.8272 21.9637C67.7176 22.0077 67.6035 22.0399 67.4869 22.0595C67.3652 22.0808 67.1611 22.1056 66.8746 22.1305C66.5575 22.1481 66.243 22.198 65.9363 22.2794C65.7788 22.322 65.6397 22.4143 65.5402 22.5424C65.4406 22.6704 65.386 22.8272 65.3848 22.9888C65.3809 23.0866 65.3988 23.1839 65.4372 23.274C65.4755 23.3642 65.5335 23.4448 65.6068 23.5103C65.7813 23.6561 66.0057 23.7297 66.2335 23.716C66.4944 23.7125 66.7499 23.6413 66.9743 23.5093C67.1986 23.3773 67.3841 23.1893 67.512 22.964C67.673 22.6505 67.7796 22.3123 67.8272 21.9637Z" fill="white"/>
<path d="M71.1075 23.5918L70.9822 24.209C70.8083 24.2562 70.6288 24.2801 70.4486 24.2799C70.1912 24.292 69.9377 24.2142 69.7323 24.06C69.6662 24.0044 69.6137 23.9347 69.579 23.856C69.5442 23.7773 69.5281 23.6918 69.5318 23.606C69.5507 23.3799 69.5878 23.1558 69.6428 22.9356L70.1943 20.364H69.5926L69.7144 19.7787H70.3161L70.5488 18.6933L71.4191 18.1719L71.0609 19.7787H71.8094L71.6841 20.364H70.9392L70.4199 22.8079C70.3762 22.9926 70.3439 23.1797 70.3232 23.3683C70.3211 23.4056 70.327 23.443 70.3406 23.4778C70.3541 23.5127 70.3751 23.5443 70.402 23.5705C70.4745 23.6254 70.5655 23.6508 70.6563 23.6415C70.8082 23.6445 70.9599 23.6278 71.1075 23.5918Z" fill="white"/>
<path d="M74.7696 23.4095C74.236 24.0125 73.6952 24.3105 73.1258 24.3105C72.82 24.3253 72.5205 24.2209 72.2914 24.0196C72.1905 23.9306 72.1099 23.8212 72.0549 23.6989C72 23.5766 71.9719 23.4441 71.9727 23.3102C71.9911 22.9862 72.039 22.6645 72.1159 22.349L72.6531 19.7951H73.4159L72.8178 22.6327C72.7749 22.8132 72.7498 22.9973 72.7426 23.1825C72.738 23.2548 72.7495 23.3271 72.7761 23.3945C72.8027 23.4619 72.8438 23.5227 72.8966 23.5727C73.0241 23.6734 73.1852 23.7228 73.3479 23.711C73.5661 23.7107 73.781 23.6584 73.9746 23.5585C74.1749 23.4467 74.3503 23.2959 74.4903 23.1151C74.6437 22.9294 74.7648 22.7196 74.8484 22.4944C74.9396 22.2327 75.0114 21.9648 75.0633 21.6928L75.4679 19.7773H76.2272L75.2925 24.2041H74.5762L74.7696 23.4095Z" fill="white"/>
<path d="M76.5156 24.2057L77.4503 19.779H78.1236L77.9338 20.6835C78.1161 20.3967 78.3434 20.1405 78.6071 19.9244C78.7996 19.7718 79.0373 19.6858 79.2839 19.6797C79.4802 19.6918 79.6711 19.7475 79.8426 19.8429L79.531 20.5523C79.4061 20.4594 79.2539 20.4096 79.0977 20.4104C78.9377 20.4252 78.7825 20.4722 78.6415 20.5484C78.5005 20.6246 78.3767 20.7285 78.2776 20.8538C77.9219 21.3175 77.6947 21.8653 77.6186 22.4429L77.239 24.2164L76.5156 24.2057Z" fill="white"/>
<path d="M82.6661 22.7019L83.4039 22.7764C83.272 23.1844 83.0232 23.5455 82.6876 23.8157C82.302 24.1467 81.8045 24.3215 81.2945 24.3052C80.9765 24.3093 80.663 24.231 80.3849 24.0782C80.1099 23.9273 79.8904 23.6938 79.7582 23.4113C79.6109 23.1034 79.5373 22.766 79.5433 22.4253C79.5418 21.9327 79.6572 21.4468 79.8799 21.0064C80.0697 20.5939 80.374 20.2433 80.7573 19.9955C81.106 19.7754 81.5114 19.6597 81.9248 19.6621C82.1604 19.6508 82.3957 19.6889 82.6154 19.7738C82.8351 19.8588 83.0342 19.9887 83.1997 20.1551C83.3652 20.3361 83.4928 20.5478 83.5751 20.778C83.6575 21.0081 83.693 21.2521 83.6796 21.4959C83.6784 21.7195 83.6581 21.9426 83.6187 22.1628H80.3276C80.3227 22.2407 80.3227 22.3189 80.3276 22.3969C80.3054 22.7364 80.407 23.0725 80.6141 23.344C80.7004 23.4489 80.8098 23.5328 80.934 23.5894C81.0581 23.646 81.1937 23.6736 81.3303 23.6703C81.6068 23.6651 81.8751 23.5773 82.1003 23.4184C82.3521 23.2359 82.5479 22.9879 82.6661 22.7019ZM80.4529 21.6059H82.9598C82.9598 21.5279 82.9598 21.4711 82.9598 21.4392C82.9808 21.1238 82.8782 20.8125 82.6733 20.5701C82.5792 20.4706 82.4647 20.3922 82.3374 20.3402C82.2102 20.2882 82.0731 20.2638 81.9356 20.2686C81.6085 20.2696 81.2929 20.3881 81.0474 20.6021C80.7513 20.8694 80.544 21.2194 80.4529 21.6059Z" fill="white"/>
<path d="M86.8867 22.2286L87.6961 22.1541V22.3669C87.6937 22.5921 87.7492 22.8143 87.8572 23.0125C87.9807 23.222 88.1728 23.3834 88.4016 23.47C88.6873 23.5828 88.993 23.6371 89.3005 23.6296C89.7043 23.6574 90.105 23.5431 90.4321 23.3069C90.5489 23.2224 90.6448 23.1127 90.7124 22.9861C90.78 22.8595 90.8177 22.7193 90.8225 22.5762C90.8207 22.3818 90.7468 22.195 90.6148 22.0512C90.2713 21.7756 89.8824 21.5609 89.4652 21.4163C89.1182 21.275 88.7808 21.1115 88.4553 20.9268C88.2078 20.7775 87.9972 20.5751 87.8393 20.3344C87.7082 20.1208 87.6399 19.875 87.6424 19.625C87.638 19.3212 87.7294 19.0237 87.9038 18.7737C88.0938 18.5096 88.3596 18.3082 88.6666 18.1955C89.0282 18.056 89.4138 17.9873 89.8018 17.9934C90.2394 17.981 90.6741 18.0671 91.0732 18.2452C91.3589 18.3731 91.6027 18.5779 91.7768 18.8363C91.9509 19.0946 92.0483 19.3961 92.058 19.7066C92.058 19.7314 92.058 19.774 92.058 19.8307L91.2594 19.8946C91.2637 19.7585 91.2493 19.6224 91.2164 19.4902C91.165 19.3286 91.0754 19.1814 90.955 19.061C90.8172 18.9309 90.6503 18.8349 90.4679 18.7808C90.2452 18.7071 90.0116 18.6711 89.7768 18.6744C89.4028 18.6516 89.0324 18.7568 88.7275 18.9723C88.6352 19.045 88.5612 19.138 88.5115 19.2439C88.4618 19.3498 88.4376 19.4657 88.441 19.5824C88.4389 19.7248 88.48 19.8644 88.5591 19.9833C88.6719 20.1322 88.8177 20.2536 88.9853 20.338C89.1286 20.4195 89.4759 20.5792 90.0239 20.8168C90.3486 20.9467 90.6624 21.1021 90.9621 21.2815C91.1759 21.4165 91.3539 21.6001 91.4814 21.8171C91.6027 22.034 91.6644 22.2786 91.6605 22.5265C91.6613 22.8561 91.5545 23.1771 91.3561 23.4416C91.1407 23.7316 90.8481 23.9564 90.5109 24.0908C90.1202 24.2488 89.7009 24.326 89.279 24.3178C88.6753 24.3441 88.078 24.1869 87.5672 23.8673C87.1183 23.5623 86.8915 23.016 86.8867 22.2286Z" fill="white"/>
<path d="M95.3673 23.4113C94.8301 24.0143 94.2929 24.3123 93.7235 24.3123C93.4165 24.3273 93.1158 24.2229 92.8855 24.0214C92.7856 23.9317 92.7059 23.8222 92.6516 23.7C92.5973 23.5777 92.5696 23.4456 92.5703 23.312C92.5887 22.988 92.6367 22.6662 92.7136 22.3508L93.2508 19.7969H94.0136L93.4155 22.6345C93.3726 22.815 93.3474 22.9991 93.3403 23.1843C93.3357 23.2565 93.3471 23.3289 93.3737 23.3963C93.4003 23.4637 93.4415 23.5245 93.4943 23.5745C93.6214 23.6758 93.7828 23.7253 93.9455 23.7128C94.1626 23.7125 94.3764 23.6602 94.5687 23.5603C94.7718 23.4588 94.9511 23.3162 95.0951 23.1418C95.2484 22.956 95.3695 22.7462 95.4532 22.521C95.5444 22.2593 95.6162 21.9914 95.6681 21.7194L96.0692 19.804H96.832L95.8973 24.2307H95.181L95.3673 23.4113Z" fill="white"/>
<path d="M96.7344 25.8943L98.0272 19.7721H98.7434L98.6109 20.3892C98.8174 20.1652 99.0593 19.9759 99.3272 19.8288C99.53 19.7259 99.7547 19.6724 99.9825 19.6727C100.185 19.6656 100.386 19.7032 100.572 19.783C100.758 19.8628 100.924 19.9826 101.057 20.1339C101.359 20.5058 101.509 20.977 101.476 21.4534C101.482 21.8838 101.404 22.3114 101.247 22.7126C101.105 23.0575 100.896 23.3711 100.631 23.6348C100.437 23.8431 100.206 24.015 99.9503 24.142C99.7275 24.2505 99.4823 24.3063 99.2341 24.3052C98.9702 24.3039 98.7123 24.2268 98.4917 24.0832C98.2712 23.9397 98.0974 23.7359 97.9914 23.4965L97.4972 25.8943H96.7344ZM98.2385 22.3898C98.2272 22.6214 98.2513 22.8534 98.3101 23.0779C98.3809 23.2566 98.5061 23.4091 98.6682 23.5142C98.8302 23.6278 99.025 23.6863 99.2233 23.6809C99.4546 23.6751 99.6791 23.6029 99.8698 23.4732C100.06 23.3435 100.209 23.1619 100.298 22.9502C100.558 22.4946 100.698 21.9807 100.702 21.4569C100.722 21.144 100.625 20.8348 100.43 20.5879C100.348 20.4899 100.244 20.4116 100.127 20.3587C100.01 20.3059 99.8821 20.28 99.7533 20.2828C99.5637 20.2817 99.3776 20.3334 99.2162 20.4318C99.0331 20.5526 98.8761 20.7081 98.7542 20.8894C98.5982 21.1162 98.4775 21.3649 98.3961 21.6272C98.3042 21.8743 98.2511 22.1339 98.2385 22.3969V22.3898Z" fill="white"/>
<path d="M105.186 22.7019L105.927 22.7764C105.794 23.1837 105.545 23.5445 105.211 23.8157C104.831 24.1408 104.344 24.3152 103.843 24.3052C103.523 24.3092 103.209 24.2309 102.929 24.0781C102.646 23.9313 102.419 23.6973 102.281 23.4113C102.133 23.1037 102.058 22.7662 102.063 22.4252C102.063 21.9324 102.179 21.4465 102.403 21.0064C102.593 20.5938 102.897 20.2432 103.28 19.9955C103.628 19.776 104.032 19.6603 104.444 19.662C104.68 19.6509 104.916 19.6891 105.136 19.774C105.357 19.8589 105.556 19.9888 105.723 20.1551C105.888 20.3363 106.015 20.5481 106.097 20.7782C106.178 21.0084 106.213 21.2523 106.199 21.4959C106.199 21.7194 106.18 21.9425 106.142 22.1627H102.851C102.84 22.2403 102.834 22.3185 102.833 22.3968C102.809 22.7371 102.912 23.0743 103.123 23.3439C103.209 23.4488 103.319 23.5328 103.443 23.5894C103.567 23.6459 103.702 23.6736 103.839 23.6702C104.115 23.6646 104.384 23.5769 104.609 23.4184C104.865 23.2376 105.065 22.9894 105.186 22.7019ZM102.972 21.6058H105.479C105.479 21.5278 105.479 21.471 105.479 21.4391C105.5 21.1237 105.398 20.8124 105.193 20.5701C105.098 20.4707 104.984 20.3924 104.857 20.3404C104.729 20.2884 104.593 20.264 104.455 20.2686C104.128 20.2682 103.812 20.3869 103.567 20.602C103.272 20.8705 103.065 21.22 102.972 21.6058Z" fill="white"/>
<path d="M106.695 24.2057L107.63 19.779H108.303L108.113 20.6835C108.296 20.3955 108.524 20.139 108.79 19.9244C108.981 19.7713 109.218 19.6852 109.464 19.6797C109.661 19.6912 109.853 19.747 110.026 19.8429L109.714 20.5523C109.589 20.4608 109.437 20.4111 109.281 20.4104C109.12 20.4247 108.964 20.4715 108.823 20.5477C108.681 20.624 108.557 20.7281 108.457 20.8538C108.103 21.3149 107.875 21.8585 107.795 22.4322L107.415 24.2057H106.695Z" fill="white"/>
<path d="M109.535 24.2053L110.47 19.7786H111.233L110.302 24.2053H109.535ZM110.66 18.9486L110.842 18.0938H111.598L111.419 18.9486H110.66Z" fill="white"/>
<path d="M111.615 22.5285C111.586 21.7409 111.861 20.972 112.385 20.379C112.594 20.1477 112.851 19.9643 113.139 19.8418C113.426 19.7193 113.738 19.6605 114.051 19.6696C114.291 19.6594 114.531 19.6985 114.755 19.7846C114.98 19.8707 115.184 20.0018 115.354 20.1697C115.524 20.3508 115.655 20.5637 115.739 20.7959C115.824 21.028 115.861 21.2746 115.848 21.5211C115.852 22.0111 115.746 22.4959 115.537 22.9399C115.348 23.3542 115.04 23.7045 114.652 23.9473C114.29 24.1746 113.871 24.2974 113.442 24.302C113.112 24.3076 112.786 24.232 112.493 24.0821C112.217 23.9435 111.99 23.726 111.841 23.4578C111.687 23.1721 111.61 22.8522 111.615 22.5285ZM112.375 22.4505C112.351 22.7941 112.46 23.1339 112.679 23.4011C112.777 23.5062 112.896 23.5894 113.029 23.6451C113.162 23.7008 113.305 23.7276 113.449 23.7238C113.615 23.7234 113.78 23.6896 113.932 23.6245C114.1 23.5556 114.252 23.4543 114.38 23.3266C114.521 23.1931 114.642 23.0402 114.738 22.8726C114.836 22.6972 114.914 22.5116 114.971 22.3192C115.054 22.0634 115.097 21.7968 115.1 21.5282C115.122 21.1902 115.013 20.8566 114.796 20.5953C114.7 20.4882 114.582 20.4029 114.449 20.3453C114.317 20.2877 114.174 20.2593 114.029 20.2619C113.8 20.2588 113.575 20.3177 113.377 20.4322C113.163 20.5576 112.979 20.7269 112.837 20.9288C112.67 21.1556 112.548 21.4121 112.478 21.6843C112.412 21.9345 112.377 22.1918 112.375 22.4505Z" fill="white"/>
<path d="M116.273 24.2057L117.208 19.779H117.881L117.692 20.6835C117.876 20.3971 118.104 20.141 118.368 19.9244C118.56 19.7706 118.798 19.6845 119.045 19.6797C119.242 19.6918 119.433 19.7475 119.604 19.8429L119.292 20.5523C119.167 20.4608 119.015 20.4111 118.859 20.4104C118.699 20.4246 118.544 20.4713 118.402 20.5476C118.261 20.6238 118.138 20.7281 118.039 20.8538C117.683 21.318 117.455 21.8654 117.376 22.4429L117 24.2164L116.273 24.2057Z" fill="white"/>
<path d="M119.117 24.2053L120.048 19.7786H120.811L119.876 24.2053H119.117ZM120.227 18.9486L120.406 18.0938H121.166L120.983 18.9486H120.227Z" fill="white"/>
<path d="M122.839 23.5918L122.713 24.209C122.541 24.2562 122.362 24.2801 122.183 24.2799C121.926 24.2942 121.671 24.2161 121.467 24.06C121.4 24.005 121.347 23.9353 121.312 23.8565C121.278 23.7777 121.262 23.6919 121.266 23.606C121.285 23.3802 121.321 23.1561 121.374 22.9356L121.918 20.364H121.317L121.438 19.7787H122.04L122.273 18.6933L123.143 18.1719L122.803 19.7787H123.555L123.426 20.364H122.681L122.165 22.8079C122.122 22.9926 122.089 23.1797 122.069 23.3683C122.066 23.4057 122.071 23.4433 122.085 23.4782C122.099 23.5132 122.12 23.5447 122.147 23.5705C122.22 23.6254 122.311 23.6508 122.402 23.6415C122.549 23.6438 122.696 23.6271 122.839 23.5918Z" fill="white"/>
<path d="M123.164 25.9138L123.211 25.2044C123.359 25.2485 123.514 25.2712 123.669 25.2718C123.803 25.2777 123.935 25.2403 124.045 25.1653C124.212 25.021 124.349 24.8464 124.45 24.651L124.693 24.2183L123.948 19.7773H124.697L125.033 22.0155C125.102 22.4589 125.159 22.8988 125.205 23.3421L127.204 19.7773H127.999L125.152 24.7929C124.972 25.1604 124.723 25.4903 124.417 25.7648C124.205 25.9207 123.947 26.003 123.683 25.9989C123.507 25.9992 123.331 25.9705 123.164 25.9138Z" fill="white"/>
<path d="M126.268 2.64672e-06C126.572 -0.000520249 126.87 0.076444 127.135 0.223468C127.41 0.366178 127.636 0.587335 127.783 0.858393C127.935 1.11961 128.014 1.41557 128.014 1.71678C128.014 2.018 127.935 2.31396 127.783 2.57517C127.634 2.84457 127.409 3.06516 127.135 3.2101C126.872 3.35878 126.575 3.43698 126.272 3.43698C125.969 3.43698 125.672 3.35878 125.409 3.2101C125.138 3.06316 124.914 2.84298 124.764 2.57517C124.616 2.31397 124.537 2.01988 124.535 1.72033C124.537 1.41806 124.617 1.12136 124.768 0.858393C124.916 0.588371 125.142 0.36757 125.416 0.223468C125.677 0.0787837 125.97 0.00189795 126.268 2.64672e-06ZM126.268 0.283768C126.017 0.285069 125.771 0.349774 125.552 0.471763C125.324 0.592381 125.136 0.775978 125.011 1.00028C124.887 1.21669 124.821 1.46081 124.818 1.70969C124.817 1.95856 124.883 2.20321 125.008 2.4191C125.134 2.6409 125.32 2.8238 125.545 2.94762C125.763 3.07214 126.01 3.1377 126.261 3.1377C126.513 3.1377 126.76 3.07214 126.978 2.94762C127.202 2.8238 127.388 2.6409 127.515 2.4191C127.638 2.20235 127.703 1.95826 127.705 1.70969C127.702 1.46029 127.634 1.2158 127.508 1.00028C127.384 0.775221 127.196 0.591368 126.967 0.471763C126.753 0.352512 126.513 0.287894 126.268 0.283768ZM125.509 2.67094V0.819375H126.15C126.31 0.811853 126.469 0.829818 126.623 0.872581C126.72 0.902867 126.804 0.965538 126.859 1.04993C126.924 1.14443 126.954 1.25837 126.944 1.37226C126.933 1.48614 126.883 1.59289 126.802 1.67422C126.699 1.77445 126.563 1.83485 126.419 1.84448C126.479 1.86455 126.534 1.89721 126.58 1.94025C126.683 2.04949 126.776 2.16827 126.856 2.29495L127.081 2.64966H126.723L126.559 2.35525C126.479 2.1943 126.371 2.04889 126.24 1.92606C126.169 1.87847 126.085 1.85595 126 1.86221H125.824V2.67094H125.509ZM125.81 1.62811H126.168C126.293 1.64062 126.418 1.61327 126.526 1.55007C126.557 1.52585 126.581 1.49497 126.597 1.45987C126.613 1.42478 126.621 1.38644 126.619 1.34789C126.621 1.29449 126.605 1.24209 126.573 1.19891C126.542 1.15508 126.498 1.12167 126.448 1.10314C126.348 1.07668 126.246 1.0659 126.143 1.07122H125.803L125.81 1.62811Z" fill="#D9251C"/>
</g>
<defs>
<clipPath id="clip0_328_2579">
<rect width="128" height="26" fill="white"/>
</clipPath>
</defs>
</svg>
