<svg width="91" height="57" viewBox="0 0 91 57" fill="none" xmlns="http://www.w3.org/2000/svg">
    <path d="M46.4648 0V27.7683H52.0158V20.8601L57.5665 22.2173V27.7683H63.1312V15.5535L46.4648 0Z" fill="#FD5523"/>
    <path d="M38.1615 8.65804V13.8425L27.7381 19.9092L27.7109 27.781H43.7258V5.45508L38.1615 8.65804ZM38.1341 24.578H33.289V21.9043L38.1341 19.1899V24.578Z" fill="#FD5523"/>
    <path d="M7.356 35.8619C8.25177 36.3369 8.94393 37.0019 9.43253 37.8569C9.9211 38.7119 10.1654 39.7026 10.1654 40.8156C10.1654 41.9286 9.9211 42.9056 9.43253 43.7606C8.94393 44.6156 8.25177 45.2809 7.356 45.7559C6.46027 46.2309 5.41523 46.4616 4.23447 46.4616H0V35.1426H4.23447C5.4288 35.1426 6.47383 35.3869 7.356 35.8619ZM6.4874 43.2312C7.071 42.6612 7.356 41.8606 7.356 40.8156C7.356 39.7706 7.071 38.9562 6.4874 38.3862C5.9038 37.8026 5.0895 37.5176 4.05803 37.5176H2.75511V44.0999H4.05803C5.10307 44.0729 5.91737 43.8016 6.4874 43.2312Z" fill="#FD5523"/>
    <path d="M19.6096 42.6348H13.3665C13.4072 43.1911 13.5837 43.6255 13.9094 43.9105C14.2216 44.2091 14.6151 44.3585 15.0766 44.3585C15.7688 44.3585 16.2438 44.0735 16.5152 43.4898H19.4468C19.2975 44.0868 19.026 44.6161 18.6324 45.0911C18.2389 45.5661 17.7503 45.9328 17.1531 46.2041C16.5559 46.4755 15.9045 46.6115 15.1716 46.6115C14.2894 46.6115 13.5022 46.4215 12.8236 46.0415C12.1315 45.6611 11.6022 45.1321 11.2086 44.4261C10.815 43.7341 10.625 42.9061 10.625 41.9698C10.625 41.0331 10.815 40.2188 11.195 39.5131C11.575 38.8211 12.1043 38.2781 12.7965 37.8981C13.4887 37.5181 14.2758 37.3281 15.1716 37.3281C16.0402 37.3281 16.8138 37.5045 17.4924 37.8711C18.171 38.2375 18.7003 38.7531 19.0803 39.4318C19.4603 40.1105 19.6503 40.8975 19.6503 41.8068C19.6639 42.0785 19.6368 42.3498 19.6096 42.6348ZM16.8409 41.1011C16.8409 40.6261 16.6781 40.2461 16.3524 39.9748C16.0266 39.6898 15.633 39.5538 15.1444 39.5538C14.683 39.5538 14.2894 39.6898 13.9773 39.9611C13.6651 40.2325 13.4615 40.6125 13.3937 41.1011H16.8409Z" fill="#FD5523"/>
    <path d="M23.3294 34.5312V46.4609H20.5742V34.5312H23.3294Z" fill="#FD5523"/>
    <path d="M29.8176 44.1263V46.4607H28.4197C27.4154 46.4607 26.6418 46.2163 26.0853 45.7277C25.5289 45.239 25.2439 44.4383 25.2439 43.339V39.756H24.1445V37.4623H25.2439V35.2773H27.999V37.476H29.804V39.756H27.999V43.3663C27.999 43.6377 28.0668 43.8277 28.189 43.9497C28.3247 44.072 28.5283 44.1263 28.8404 44.1263H29.8176Z" fill="#FD5523"/>
    <path d="M30.7814 39.5131C31.1343 38.8211 31.6093 38.2781 32.2065 37.8981C32.8036 37.5181 33.4821 37.3281 34.2151 37.3281C34.8531 37.3281 35.4094 37.4638 35.8844 37.7218C36.3594 37.9795 36.7258 38.3188 36.9838 38.7395V37.4638H39.7388V46.4621H36.9838V45.1861C36.7124 45.6071 36.3458 45.9465 35.8574 46.2041C35.3824 46.4621 34.8258 46.5978 34.1881 46.5978C33.4551 46.5978 32.79 46.4078 32.1929 46.0278C31.5957 45.6478 31.1207 45.1048 30.7678 44.3991C30.415 43.6935 30.2385 42.8791 30.2385 41.9561C30.2657 41.0331 30.4285 40.2188 30.7814 39.5131ZM36.4274 40.3411C36.0474 39.9475 35.5858 39.7438 35.0294 39.7438C34.4864 39.7438 34.0114 39.9338 33.6314 40.3275C33.2515 40.7211 33.0615 41.2641 33.0615 41.9425C33.0615 42.6348 33.2515 43.1775 33.6314 43.5848C34.0114 43.9918 34.4731 44.1955 35.0294 44.1955C35.5724 44.1955 36.0474 43.9918 36.4274 43.5985C36.8074 43.2048 36.9974 42.6618 36.9974 41.9698C36.9974 41.2775 36.8074 40.7348 36.4274 40.3411Z" fill="#FD5523"/>
    <path d="M53.6349 35.1426V46.4616H50.8799V41.8062H46.5909V46.4616H43.8359V35.1426H46.5909V39.5806H50.8799V35.1426H53.6349Z" fill="#FD5523"/>
    <path d="M56.5284 46.0278C55.8227 45.6478 55.266 45.1185 54.8727 44.4128C54.4654 43.7205 54.2617 42.8925 54.2617 41.9561C54.2617 41.0331 54.4654 40.2188 54.8727 39.5131C55.2797 38.8075 55.8361 38.2645 56.5554 37.8981C57.2614 37.5181 58.0621 37.3281 58.9441 37.3281C59.8264 37.3281 60.6271 37.5181 61.3327 37.8981C62.0387 38.2781 62.595 38.8211 63.0157 39.5131C63.423 40.2188 63.6264 41.0331 63.6264 41.9561C63.6264 42.8791 63.423 43.6935 63.0021 44.3991C62.595 45.1048 62.025 45.6478 61.3057 46.0141C60.5864 46.3941 59.799 46.5841 58.917 46.5841C58.0214 46.5978 57.234 46.4078 56.5284 46.0278ZM60.2471 43.6255C60.6134 43.2318 60.8034 42.6891 60.8034 41.9698C60.8034 41.2505 60.6271 40.6938 60.2607 40.3138C59.8941 39.9205 59.4597 39.7305 58.9307 39.7305C58.3877 39.7305 57.9534 39.9205 57.5871 40.3005C57.2341 40.6805 57.0577 41.2368 57.0577 41.9698C57.0577 42.6891 57.2341 43.2455 57.5871 43.6255C57.9397 44.0191 58.374 44.2091 58.9034 44.2091C59.4327 44.2091 59.8807 44.0191 60.2471 43.6255Z" fill="#FD5523"/>
    <path d="M73.1526 37.4629V46.4612H70.3976V45.2396C70.1126 45.6332 69.7326 45.9589 69.2576 46.2032C68.7826 46.4476 68.2533 46.5699 67.6696 46.5699C66.9776 46.5699 66.3803 46.4206 65.851 46.1082C65.3216 45.7962 64.9146 45.3619 64.6296 44.7782C64.3446 44.1946 64.1953 43.5159 64.1953 42.7289V37.4766H66.937V42.3626C66.937 42.9596 67.086 43.4346 67.3983 43.7602C67.7103 44.0996 68.1313 44.2626 68.6603 44.2626C69.2033 44.2626 69.624 44.0996 69.9363 43.7602C70.2483 43.4209 70.3976 42.9596 70.3976 42.3626V37.4766H73.1526V37.4629Z" fill="#FD5523"/>
    <path d="M75.8931 46.1908C75.2824 45.9191 74.7938 45.5528 74.4411 45.0915C74.0881 44.6298 73.8848 44.1005 73.8438 43.5171H76.5718C76.5991 43.8291 76.7484 44.0871 77.0061 44.2771C77.2641 44.4671 77.5761 44.5621 77.9561 44.5621C78.2954 44.5621 78.5671 44.4941 78.7571 44.3585C78.9471 44.2228 79.0421 44.0465 79.0421 43.8291C79.0421 43.5715 78.9061 43.3815 78.6348 43.2591C78.3634 43.1371 77.9291 43.0011 77.3318 42.8521C76.6804 42.7028 76.1511 42.5398 75.7168 42.3771C75.2824 42.2141 74.9161 41.9428 74.6037 41.5898C74.2917 41.2235 74.1424 40.7485 74.1424 40.1241C74.1424 39.6085 74.2781 39.1331 74.5631 38.7125C74.8481 38.2918 75.2691 37.9525 75.8254 37.7081C76.3818 37.4638 77.0334 37.3418 77.8068 37.3418C78.9334 37.3418 79.8291 37.6268 80.4804 38.1831C81.1321 38.7398 81.4984 39.4861 81.6071 40.4091H79.0554C79.0148 40.0968 78.8791 39.8525 78.6484 39.6625C78.4178 39.4861 78.1191 39.3911 77.7391 39.3911C77.4134 39.3911 77.1691 39.4591 76.9924 39.5811C76.8161 39.7035 76.7348 39.8798 76.7348 40.0835C76.7348 40.3411 76.8704 40.5311 77.1417 40.6668C77.4134 40.8028 77.8478 40.9248 78.4178 41.0605C79.0828 41.2368 79.6254 41.3998 80.0464 41.5628C80.4671 41.7255 80.8334 41.9971 81.1458 42.3635C81.4578 42.7298 81.6208 43.2321 81.6341 43.8565C81.6341 44.3858 81.4848 44.8471 81.1864 45.2678C80.8878 45.6751 80.4671 46.0008 79.9104 46.2451C79.3541 46.4758 78.7161 46.5978 77.9834 46.5978C77.2098 46.5978 76.5041 46.4621 75.8931 46.1908Z" fill="#FD5523"/>
    <path d="M90.9612 42.6348H84.7179C84.7589 43.1911 84.9352 43.6255 85.2609 43.9105C85.5732 44.2091 85.9666 44.3585 86.4282 44.3585C87.1202 44.3585 87.5952 44.0735 87.8669 43.4898H90.7982C90.6489 44.0868 90.3776 44.6161 89.9839 45.0911C89.5906 45.5661 89.1019 45.9328 88.5046 46.2041C87.9076 46.4755 87.2559 46.6115 86.5232 46.6115C85.6409 46.6115 84.8539 46.4215 84.1752 46.0415C83.4829 45.6611 82.9536 45.1321 82.5602 44.4261C82.1666 43.7341 81.9766 42.9061 81.9766 41.9698C81.9766 41.0331 82.1666 40.2188 82.5466 39.5131C82.9266 38.8211 83.4559 38.2781 84.1479 37.8981C84.8402 37.5181 85.6272 37.3281 86.5232 37.3281C87.3919 37.3281 88.1652 37.5045 88.8439 37.8711C89.5226 38.2375 90.0519 38.7531 90.4319 39.4318C90.8119 40.1105 91.0019 40.8975 91.0019 41.8068C91.0019 42.0785 90.9882 42.3498 90.9612 42.6348ZM88.1789 41.1011C88.1789 40.6261 88.0159 40.2461 87.6902 39.9748C87.3646 39.6898 86.9709 39.5538 86.4826 39.5538C86.0209 39.5538 85.6272 39.6898 85.3152 39.9611C85.0032 40.2325 84.7996 40.6125 84.7316 41.1011H88.1789Z" fill="#FD5523"/>
    <path d="M24.3732 52.922C24.2239 52.6233 24.0204 52.379 23.7489 52.216C23.4775 52.0533 23.1518 51.9717 22.7853 51.9717C22.4189 51.9717 22.0931 52.0533 21.7946 52.216C21.496 52.379 21.2788 52.6233 21.1024 52.9353C20.9395 53.2477 20.8581 53.614 20.8581 54.0213C20.8581 54.4283 20.9395 54.7947 21.1024 55.0933C21.2652 55.4057 21.496 55.6363 21.7946 55.8127C22.0931 55.9757 22.4189 56.057 22.7853 56.057C23.301 56.057 23.7082 55.9077 24.0475 55.5957C24.3732 55.297 24.5632 54.8763 24.6175 54.3603H22.541V53.804H25.3504V54.3333C25.3097 54.7677 25.174 55.1613 24.9433 55.514C24.7125 55.867 24.4139 56.152 24.0339 56.3557C23.6539 56.559 23.2468 56.6677 22.7853 56.6677C22.2967 56.6677 21.8624 56.559 21.4553 56.3283C21.0617 56.0977 20.7359 55.7857 20.5052 55.3783C20.2745 54.9713 20.1523 54.5233 20.1523 54.0077C20.1523 53.492 20.2745 53.044 20.5052 52.637C20.7359 52.2297 21.0481 51.9177 21.4553 51.6867C21.8488 51.456 22.2967 51.3477 22.7853 51.3477C23.3418 51.3477 23.8303 51.4833 24.2511 51.7547C24.6718 52.026 24.984 52.4197 25.1875 52.922H24.3732Z" fill="#FD5523"/>
    <path d="M34.9894 56.6273L33.7407 54.4967H32.913V56.6273H32.2344V51.4023H33.9174C34.3107 51.4023 34.6501 51.47 34.9217 51.6057C35.1931 51.7413 35.3967 51.918 35.5324 52.1487C35.6681 52.3793 35.7361 52.6373 35.7361 52.9357C35.7361 53.2887 35.6274 53.6143 35.4237 53.886C35.2201 54.1573 34.9081 54.3473 34.4874 54.4287L35.8037 56.614H34.9894V56.6273ZM32.9265 53.9537H33.9307C34.2974 53.9537 34.5824 53.8587 34.7587 53.6823C34.9487 53.506 35.0301 53.2617 35.0301 52.9493C35.0301 52.6373 34.9351 52.4067 34.7587 52.23C34.5824 52.0537 34.2974 51.9723 33.9174 51.9723H32.913V53.9537H32.9265Z" fill="#FD5523"/>
    <path d="M43.8225 56.342C43.4289 56.1113 43.1032 55.7993 42.8725 55.392C42.6419 54.985 42.5195 54.5233 42.5195 54.0213C42.5195 53.519 42.6419 53.0577 42.8725 52.6507C43.1032 52.2433 43.4152 51.9313 43.8225 51.7003C44.2162 51.4697 44.6639 51.3613 45.1525 51.3613C45.6412 51.3613 46.0892 51.4697 46.4825 51.7003C46.8762 51.9313 47.2019 52.2433 47.4325 52.6507C47.6635 53.0577 47.7719 53.519 47.7719 54.035C47.7719 54.5507 47.6635 55.012 47.4325 55.4193C47.2019 55.8263 46.8899 56.1387 46.4825 56.3693C46.0892 56.6 45.6412 56.7087 45.1525 56.7087C44.6639 56.6813 44.2295 56.5727 43.8225 56.342ZM46.1299 55.84C46.4282 55.677 46.6455 55.4327 46.8219 55.107C46.9849 54.795 47.0662 54.4283 47.0662 54.0077C47.0662 53.587 46.9849 53.2207 46.8219 52.9083C46.6592 52.5963 46.4282 52.352 46.1432 52.189C45.8582 52.0263 45.5189 51.9313 45.1525 51.9313C44.7862 51.9313 44.4469 52.0127 44.1619 52.189C43.8769 52.3653 43.6462 52.5963 43.4832 52.9083C43.3202 53.2207 43.2389 53.587 43.2389 54.0077C43.2389 54.4283 43.3202 54.7813 43.4832 55.107C43.6462 55.4193 43.8769 55.6633 44.1755 55.84C44.4739 56.0163 44.7999 56.0977 45.1662 56.0977C45.5189 56.0843 45.8449 56.0027 46.1299 55.84Z" fill="#FD5523"/>
    <path d="M55.333 51.4141V54.7121C55.333 55.1734 55.4416 55.5264 55.6723 55.7434C55.903 55.9744 56.215 56.0827 56.6223 56.0827C57.016 56.0827 57.328 55.9744 57.5586 55.7434C57.7893 55.5127 57.898 55.1734 57.898 54.7121V51.4141H58.5766V54.7121C58.5766 55.1464 58.4953 55.5127 58.3186 55.8114C58.1423 56.1101 57.9116 56.3271 57.613 56.4764C57.3143 56.6257 56.9886 56.6937 56.6086 56.6937C56.2423 56.6937 55.903 56.6257 55.6043 56.4764C55.3056 56.3271 55.075 56.1101 54.8986 55.8114C54.7223 55.5127 54.6406 55.1464 54.6406 54.7121V51.4141H55.333Z" fill="#FD5523"/>
    <path d="M68.7548 54.0201C68.4565 54.3051 68.0085 54.4541 67.3978 54.4541H66.3935V56.6394H65.7148V51.4141H67.3978C67.9815 51.4141 68.4292 51.5497 68.7415 51.8347C69.0535 52.1197 69.2028 52.4864 69.2028 52.9341C69.1892 53.3684 69.0535 53.7351 68.7548 54.0201ZM68.2258 53.6401C68.4022 53.4771 68.4972 53.2464 68.4972 52.9341C68.4972 52.2964 68.1308 51.9704 67.3842 51.9704H66.3798V53.8841H67.3842C67.7642 53.8841 68.0492 53.8027 68.2258 53.6401Z" fill="#FD5523"/>
</svg>
