<svg width="328" height="290" viewBox="0 0 328 290" fill="none" xmlns="http://www.w3.org/2000/svg">
<path d="M11.9062 17.0781H0.726562V9.39062H32.2031V17.0781H21.0234V43H11.9062V17.0781ZM65.2031 43H36.5156V9.39062H65.2031V16.7031H45.6328V22.3516H61.9453V29.2656H45.6328V35.7109H65.2031V43ZM88.0312 16.7969C85.4375 16.7969 83.4609 17.6719 82.1016 19.4219C80.7422 21.1719 80.0625 23.4297 80.0625 26.1953C80.0625 28.9609 80.7422 31.2188 82.1016 32.9688C83.4609 34.7344 85.4375 35.6172 88.0312 35.6172C89.3125 35.6172 90.4609 35.4141 91.4766 35.0078C92.5078 34.6016 93.2891 34.0859 93.8203 33.4609C94.8203 32.3047 95.3906 31.2109 95.5312 30.1797L95.625 29.5703H105.211C105.211 33.6328 103.633 36.9609 100.477 39.5547C97.3047 42.1641 93.1562 43.4688 88.0312 43.4688C82.6875 43.4688 78.4297 41.9297 75.2578 38.8516C72.0703 35.7734 70.4766 31.5547 70.4766 26.1953C70.4766 20.8047 72.0703 16.5781 75.2578 13.5156C78.4141 10.4531 82.6719 8.92188 88.0312 8.92188C93.1562 8.92188 97.3047 10.2266 100.477 12.8359C103.633 15.4297 105.211 18.7656 105.211 22.8438H95.625C95.625 22.3438 95.4219 21.6406 95.0156 20.7344C94.6875 20.0312 94.2812 19.4141 93.7969 18.8828C93.2656 18.3047 92.4844 17.8125 91.4531 17.4062C90.4375 17 89.2969 16.7969 88.0312 16.7969ZM144 43H134.883V29.1719H120.352V43H111.234V9.39062H120.352V21.4844H134.883V9.39062H144V43ZM184.898 43H170.18L161.625 21.7891L159.656 17.2656H158.742L160.336 21.7891V43H151.219V9.39062H165.938L174.492 30.625L176.461 35.125H177.375L175.781 30.625V9.39062H184.898V43ZM191.133 9.39062H216.188V16.7031H208.219V35.7109H216.188V43H191.133V35.7109H199.102V16.7031H191.133V9.39062ZM238.031 16.7969C235.438 16.7969 233.461 17.6719 232.102 19.4219C230.742 21.1719 230.062 23.4297 230.062 26.1953C230.062 28.9609 230.742 31.2188 232.102 32.9688C233.461 34.7344 235.438 35.6172 238.031 35.6172C239.312 35.6172 240.461 35.4141 241.477 35.0078C242.508 34.6016 243.289 34.0859 243.82 33.4609C244.82 32.3047 245.391 31.2109 245.531 30.1797L245.625 29.5703H255.211C255.211 33.6328 253.633 36.9609 250.477 39.5547C247.305 42.1641 243.156 43.4688 238.031 43.4688C232.688 43.4688 228.43 41.9297 225.258 38.8516C222.07 35.7734 220.477 31.5547 220.477 26.1953C220.477 20.8047 222.07 16.5781 225.258 13.5156C228.414 10.4531 232.672 8.92188 238.031 8.92188C243.156 8.92188 247.305 10.2266 250.477 12.8359C253.633 15.4297 255.211 18.7656 255.211 22.8438H245.625C245.625 22.3438 245.422 21.6406 245.016 20.7344C244.688 20.0312 244.281 19.4141 243.797 18.8828C243.266 18.3047 242.484 17.8125 241.453 17.4062C240.438 17 239.297 16.7969 238.031 16.7969ZM269.836 9.39062H281.461L294.891 43H285.352L283.289 37.8672H268.008L265.945 43H256.406L269.836 9.39062ZM270.562 30.9531H280.734L275.93 18.2734H275.367L270.562 30.9531ZM307.383 35.3125H326.203V43H298.266V9.39062H307.383V35.3125ZM32.3906 77.1875V78.0547H22.8047V77.1875C22.8047 76.2031 22.3672 75.4297 21.4922 74.8672C20.6172 74.3047 19.3438 74.0234 17.6719 74.0234C16.0469 74.0234 14.7812 74.2969 13.875 74.8438C12.9844 75.375 12.5391 76.0938 12.5391 77C12.5391 77.8125 13.0703 78.4688 14.1328 78.9688C15.1484 79.4375 16.4609 79.7578 18.0703 79.9297C19.6641 80.1016 21.3828 80.3828 23.2266 80.7734C25.1016 81.1953 26.8281 81.7109 28.4062 82.3203C30 82.9453 31.3203 83.9844 32.3672 85.4375C33.4141 86.9062 33.9375 88.7344 33.9375 90.9219C33.9375 94.25 32.5703 96.8359 29.8359 98.6797C27.0859 100.539 23.1562 101.469 18.0469 101.469C12.8438 101.469 8.89062 100.555 6.1875 98.7266C3.5 96.8828 2.15625 94.2031 2.15625 90.6875V89.3281H11.7656V90.7344C11.7656 93.1719 13.8594 94.3828 18.0469 94.3672C19.9062 94.3672 21.4219 94.0859 22.5938 93.5234C23.75 92.9766 24.3281 92.125 24.3281 90.9688C24.3281 90.125 23.8047 89.4609 22.7578 88.9766C21.6797 88.4766 20.3594 88.1328 18.7969 87.9453C17.2188 87.7578 15.5 87.4531 13.6406 87.0312C11.75 86.5938 10.0312 86.0781 8.48438 85.4844C6.90625 84.9062 5.58594 83.8828 4.52344 82.4141C3.46094 80.9766 2.92969 79.2031 2.92969 77.0938C2.92969 73.9531 4.20312 71.4688 6.75 69.6406C9.3125 67.8281 12.9531 66.9219 17.6719 66.9219C22.4531 66.9219 26.1016 67.8047 28.6172 69.5703C31.1328 71.3203 32.3906 73.8594 32.3906 77.1875ZM69.4922 71.5156C72.6641 74.5938 74.25 78.8203 74.25 84.1953C74.25 89.5547 72.6641 93.7734 69.4922 96.8516C66.2891 99.9297 61.9609 101.469 56.5078 101.469C51.0234 101.469 46.6953 99.9297 43.5234 96.8516C40.3359 93.7734 38.7422 89.5547 38.7422 84.1953C38.7422 78.8047 40.3359 74.5781 43.5234 71.5156C46.6797 68.4531 51.0078 66.9219 56.5078 66.9219C61.9922 66.9219 66.3203 68.4531 69.4922 71.5156ZM56.4844 93.6172C59.1875 93.6172 61.2266 92.7422 62.6016 90.9922C63.9766 89.2422 64.6641 86.9766 64.6641 84.1953C64.6641 81.4141 63.9766 79.1484 62.6016 77.3984C61.2109 75.6641 59.1719 74.7969 56.4844 74.7969C53.7969 74.7969 51.7656 75.6641 50.3906 77.3984C49.0156 79.1484 48.3281 81.4141 48.3281 84.1953C48.3281 86.9766 49.0156 89.2422 50.3906 90.9922C51.7656 92.7422 53.7969 93.6172 56.4844 93.6172ZM89.6016 93.3125H108.422V101H80.4844V67.3906H89.6016V93.3125ZM144.281 88.5781C144.281 92.8281 142.797 96.0391 139.828 98.2109C136.859 100.383 132.922 101.469 128.016 101.469C123.109 101.469 119.172 100.383 116.203 98.2109C113.219 96.0234 111.727 92.8125 111.727 88.5781V67.3906H120.844V88.0859C120.844 90.0391 121.531 91.4453 122.906 92.3047C124.281 93.1797 125.984 93.6172 128.016 93.6172C130.047 93.6172 131.75 93.1797 133.125 92.3047C134.484 91.4453 135.164 90.0391 135.164 88.0859V67.3906H144.281V88.5781ZM159.562 75.0781H148.383V67.3906H179.859V75.0781H168.68V101H159.562V75.0781ZM183.211 67.3906H208.266V74.7031H200.297V93.7109H208.266V101H183.211V93.7109H191.18V74.7031H183.211V67.3906ZM243.305 71.5156C246.477 74.5938 248.062 78.8203 248.062 84.1953C248.062 89.5547 246.477 93.7734 243.305 96.8516C240.102 99.9297 235.773 101.469 230.32 101.469C224.836 101.469 220.508 99.9297 217.336 96.8516C214.148 93.7734 212.555 89.5547 212.555 84.1953C212.555 78.8047 214.148 74.5781 217.336 71.5156C220.492 68.4531 224.82 66.9219 230.32 66.9219C235.805 66.9219 240.133 68.4531 243.305 71.5156ZM230.297 93.6172C233 93.6172 235.039 92.7422 236.414 90.9922C237.789 89.2422 238.477 86.9766 238.477 84.1953C238.477 81.4141 237.789 79.1484 236.414 77.3984C235.023 75.6641 232.984 74.7969 230.297 74.7969C227.609 74.7969 225.578 75.6641 224.203 77.3984C222.828 79.1484 222.141 81.4141 222.141 84.1953C222.141 86.9766 222.828 89.2422 224.203 90.9922C225.578 92.7422 227.609 93.6172 230.297 93.6172ZM287.977 101H273.258L264.703 79.7891L262.734 75.2656H261.82L263.414 79.7891V101H254.297V67.3906H269.016L277.57 88.625L279.539 93.125H280.453L278.859 88.625V67.3906H287.977V101Z" fill="black"/>
<path d="M156.727 159H147.609V125.391H175.641V132.703H156.727V140.414H172.266V147.328H156.727V159ZM209.508 129.516C212.68 132.594 214.266 136.82 214.266 142.195C214.266 147.555 212.68 151.773 209.508 154.852C206.305 157.93 201.977 159.469 196.523 159.469C191.039 159.469 186.711 157.93 183.539 154.852C180.352 151.773 178.758 147.555 178.758 142.195C178.758 136.805 180.352 132.578 183.539 129.516C186.695 126.453 191.023 124.922 196.523 124.922C202.008 124.922 206.336 126.453 209.508 129.516ZM196.5 151.617C199.203 151.617 201.242 150.742 202.617 148.992C203.992 147.242 204.68 144.977 204.68 142.195C204.68 139.414 203.992 137.148 202.617 135.398C201.227 133.664 199.188 132.797 196.5 132.797C193.812 132.797 191.781 133.664 190.406 135.398C189.031 137.148 188.344 139.414 188.344 142.195C188.344 144.977 189.031 147.242 190.406 148.992C191.781 150.742 193.812 151.617 196.5 151.617ZM235.219 147.961H229.617V159H220.5V125.391H235.617C240.648 125.391 244.266 126.281 246.469 128.062C248.672 129.844 249.773 132.648 249.773 136.477C249.773 137.867 249.586 139.164 249.211 140.367C248.852 141.555 248.375 142.5 247.781 143.203C246.625 144.578 245.594 145.492 244.688 145.945L244.102 146.18V146.32L252.352 159H242.227L235.219 147.961ZM229.617 140.367H235.617C238.648 140.367 240.164 139.133 240.164 136.664C240.164 134.211 238.648 132.984 235.617 132.984H229.617V140.367Z" fill="black"/>
<path d="M67.8438 190.797C65.25 190.797 63.2734 191.672 61.9141 193.422C60.5547 195.172 59.875 197.43 59.875 200.195C59.875 202.961 60.5547 205.219 61.9141 206.969C63.2734 208.734 65.25 209.617 67.8438 209.617C69.125 209.617 70.2734 209.414 71.2891 209.008C72.3203 208.602 73.1016 208.086 73.6328 207.461C74.6328 206.305 75.2031 205.211 75.3438 204.18L75.4375 203.57H85.0234C85.0234 207.633 83.4453 210.961 80.2891 213.555C77.1172 216.164 72.9688 217.469 67.8438 217.469C62.5 217.469 58.2422 215.93 55.0703 212.852C51.8828 209.773 50.2891 205.555 50.2891 200.195C50.2891 194.805 51.8828 190.578 55.0703 187.516C58.2266 184.453 62.4844 182.922 67.8438 182.922C72.9688 182.922 77.1172 184.227 80.2891 186.836C83.4453 189.43 85.0234 192.766 85.0234 196.844H75.4375C75.4375 196.344 75.2344 195.641 74.8281 194.734C74.5 194.031 74.0938 193.414 73.6094 192.883C73.0781 192.305 72.2969 191.812 71.2656 191.406C70.25 191 69.1094 190.797 67.8438 190.797ZM105.766 205.961H100.164V217H91.0469V183.391H106.164C111.195 183.391 114.812 184.281 117.016 186.062C119.219 187.844 120.32 190.648 120.32 194.477C120.32 195.867 120.133 197.164 119.758 198.367C119.398 199.555 118.922 200.5 118.328 201.203C117.172 202.578 116.141 203.492 115.234 203.945L114.648 204.18V204.32L122.898 217H112.773L105.766 205.961ZM100.164 198.367H106.164C109.195 198.367 110.711 197.133 110.711 194.664C110.711 192.211 109.195 190.984 106.164 190.984H100.164V198.367ZM155.922 217H127.234V183.391H155.922V190.703H136.352V196.352H152.664V203.266H136.352V209.711H155.922V217ZM171.742 183.391H183.367L196.797 217H187.258L185.195 211.867H169.914L167.852 217H158.312L171.742 183.391ZM172.469 204.953H182.641L177.836 192.273H177.273L172.469 204.953ZM205.094 191.078H193.914V183.391H225.391V191.078H214.211V217H205.094V191.078ZM228.742 183.391H253.797V190.703H245.828V209.711H253.797V217H228.742V209.711H236.711V190.703H228.742V183.391ZM282.766 183.391H292.375L281.008 217H268.516L257.148 183.391H266.734L274.328 208.117H275.195L282.766 183.391ZM325.375 217H296.688V183.391H325.375V190.703H305.805V196.352H322.117V203.266H305.805V209.711H325.375V217Z" fill="black"/>
<path d="M2.64844 241.391H27.7031V248.703H19.7344V267.711H27.7031V275H2.64844V267.711H10.6172V248.703H2.64844V241.391ZM33.9375 241.391H48.0938C53.7031 241.391 58.0625 242.836 61.1719 245.727C64.25 248.633 65.7891 252.789 65.7891 258.195C65.7891 263.602 64.25 267.75 61.1719 270.641C58.0781 273.547 53.7188 275 48.0938 275H33.9375V241.391ZM48.0938 249.078H43.0547V267.312H48.0938C50.8125 267.312 52.8438 266.477 54.1875 264.805C55.5312 263.133 56.2031 260.93 56.2031 258.195C56.2031 255.445 55.5312 253.234 54.1875 251.562C52.8594 249.906 50.8281 249.078 48.0938 249.078ZM100.734 275H72.0469V241.391H100.734V248.703H81.1641V254.352H97.4766V261.266H81.1641V267.711H100.734V275ZM116.555 241.391H128.18L141.609 275H132.07L130.008 269.867H114.727L112.664 275H103.125L116.555 241.391ZM117.281 262.953H127.453L122.648 250.273H122.086L117.281 262.953ZM172.781 251.188V252.055H163.195V251.188C163.195 250.203 162.758 249.43 161.883 248.867C161.008 248.305 159.734 248.023 158.062 248.023C156.438 248.023 155.172 248.297 154.266 248.844C153.375 249.375 152.93 250.094 152.93 251C152.93 251.812 153.461 252.469 154.523 252.969C155.539 253.438 156.852 253.758 158.461 253.93C160.055 254.102 161.773 254.383 163.617 254.773C165.492 255.195 167.219 255.711 168.797 256.32C170.391 256.945 171.711 257.984 172.758 259.438C173.805 260.906 174.328 262.734 174.328 264.922C174.328 268.25 172.961 270.836 170.227 272.68C167.477 274.539 163.547 275.469 158.438 275.469C153.234 275.469 149.281 274.555 146.578 272.727C143.891 270.883 142.547 268.203 142.547 264.688V263.328H152.156V264.734C152.156 267.172 154.25 268.383 158.438 268.367C160.297 268.367 161.812 268.086 162.984 267.523C164.141 266.977 164.719 266.125 164.719 264.969C164.719 264.125 164.195 263.461 163.148 262.977C162.07 262.477 160.75 262.133 159.188 261.945C157.609 261.758 155.891 261.453 154.031 261.031C152.141 260.594 150.422 260.078 148.875 259.484C147.297 258.906 145.977 257.883 144.914 256.414C143.852 254.977 143.32 253.203 143.32 251.094C143.32 247.953 144.594 245.469 147.141 243.641C149.703 241.828 153.344 240.922 158.062 240.922C162.844 240.922 166.492 241.805 169.008 243.57C171.523 245.32 172.781 247.859 172.781 251.188Z" fill="black"/>
</svg>
