<svg width="841" height="275" viewBox="0 0 841 275" fill="none" xmlns="http://www.w3.org/2000/svg">
<path d="M15.9062 23.4375H1V13.1875H42.9688V23.4375H28.0625V58H15.9062V23.4375ZM86.9688 58H48.7188V13.1875H86.9688V22.9375H60.875V30.4688H82.625V39.6875H60.875V48.2812H86.9688V58ZM117.406 23.0625C113.948 23.0625 111.312 24.2292 109.5 26.5625C107.688 28.8958 106.781 31.9062 106.781 35.5938C106.781 39.2812 107.688 42.2917 109.5 44.625C111.312 46.9792 113.948 48.1562 117.406 48.1562C119.115 48.1562 120.646 47.8854 122 47.3438C123.375 46.8021 124.417 46.1146 125.125 45.2812C126.458 43.7396 127.219 42.2812 127.406 40.9062L127.531 40.0938H140.312C140.312 45.5104 138.208 49.9479 134 53.4062C129.771 56.8854 124.24 58.625 117.406 58.625C110.281 58.625 104.604 56.5729 100.375 52.4688C96.125 48.3646 94 42.7396 94 35.5938C94 28.4062 96.125 22.7708 100.375 18.6875C104.583 14.6042 110.26 12.5625 117.406 12.5625C124.24 12.5625 129.771 14.3021 134 17.7812C138.208 21.2396 140.312 25.6875 140.312 31.125H127.531C127.531 30.4583 127.26 29.5208 126.719 28.3125C126.281 27.375 125.74 26.5521 125.094 25.8438C124.385 25.0729 123.344 24.4167 121.969 23.875C120.615 23.3333 119.094 23.0625 117.406 23.0625ZM192.031 58H179.875V39.5625H160.5V58H148.344V13.1875H160.5V29.3125H179.875V13.1875H192.031V58ZM246.562 58H226.938L215.531 29.7188L212.906 23.6875H211.688L213.812 29.7188V58H201.656V13.1875H221.281L232.688 41.5L235.312 47.5H236.531L234.406 41.5V13.1875H246.562V58ZM254.875 13.1875H288.281V22.9375H277.656V48.2812H288.281V58H254.875V48.2812H265.5V22.9375H254.875V13.1875ZM317.406 23.0625C313.948 23.0625 311.312 24.2292 309.5 26.5625C307.688 28.8958 306.781 31.9062 306.781 35.5938C306.781 39.2812 307.688 42.2917 309.5 44.625C311.312 46.9792 313.948 48.1562 317.406 48.1562C319.115 48.1562 320.646 47.8854 322 47.3438C323.375 46.8021 324.417 46.1146 325.125 45.2812C326.458 43.7396 327.219 42.2812 327.406 40.9062L327.531 40.0938H340.312C340.312 45.5104 338.208 49.9479 334 53.4062C329.771 56.8854 324.24 58.625 317.406 58.625C310.281 58.625 304.604 56.5729 300.375 52.4688C296.125 48.3646 294 42.7396 294 35.5938C294 28.4062 296.125 22.7708 300.375 18.6875C304.583 14.6042 310.26 12.5625 317.406 12.5625C324.24 12.5625 329.771 14.3021 334 17.7812C338.208 21.2396 340.312 25.6875 340.312 31.125H327.531C327.531 30.4583 327.26 29.5208 326.719 28.3125C326.281 27.375 325.74 26.5521 325.094 25.8438C324.385 25.0729 323.344 24.4167 321.969 23.875C320.615 23.3333 319.094 23.0625 317.406 23.0625ZM359.812 13.1875H375.312L393.219 58H380.5L377.75 51.1562H357.375L354.625 58H341.906L359.812 13.1875ZM360.781 41.9375H374.344L367.938 25.0312H367.188L360.781 41.9375ZM409.875 47.75H434.969V58H397.719V13.1875H409.875V47.75ZM495.406 26.25V27.4062H482.625V26.25C482.625 24.9375 482.042 23.9062 480.875 23.1562C479.708 22.4062 478.01 22.0312 475.781 22.0312C473.615 22.0312 471.927 22.3958 470.719 23.125C469.531 23.8333 468.938 24.7917 468.938 26C468.938 27.0833 469.646 27.9583 471.062 28.625C472.417 29.25 474.167 29.6771 476.312 29.9062C478.438 30.1354 480.729 30.5104 483.188 31.0312C485.688 31.5938 487.99 32.2812 490.094 33.0938C492.219 33.9271 493.979 35.3125 495.375 37.25C496.771 39.2083 497.469 41.6458 497.469 44.5625C497.469 49 495.646 52.4479 492 54.9062C488.333 57.3854 483.094 58.625 476.281 58.625C469.344 58.625 464.073 57.4062 460.469 54.9688C456.885 52.5104 455.094 48.9375 455.094 44.25V42.4375H467.906V44.3125C467.906 47.5625 470.698 49.1771 476.281 49.1562C478.76 49.1562 480.781 48.7812 482.344 48.0312C483.885 47.3021 484.656 46.1667 484.656 44.625C484.656 43.5 483.958 42.6146 482.562 41.9688C481.125 41.3021 479.365 40.8438 477.281 40.5938C475.177 40.3438 472.885 39.9375 470.406 39.375C467.885 38.7917 465.594 38.1042 463.531 37.3125C461.427 36.5417 459.667 35.1771 458.25 33.2188C456.833 31.3021 456.125 28.9375 456.125 26.125C456.125 21.9375 457.823 18.625 461.219 16.1875C464.635 13.7708 469.49 12.5625 475.781 12.5625C482.156 12.5625 487.021 13.7396 490.375 16.0938C493.729 18.4271 495.406 21.8125 495.406 26.25ZM544.875 18.6875C549.104 22.7917 551.219 28.4271 551.219 35.5938C551.219 42.7396 549.104 48.3646 544.875 52.4688C540.604 56.5729 534.833 58.625 527.562 58.625C520.25 58.625 514.479 56.5729 510.25 52.4688C506 48.3646 503.875 42.7396 503.875 35.5938C503.875 28.4062 506 22.7708 510.25 18.6875C514.458 14.6042 520.229 12.5625 527.562 12.5625C534.875 12.5625 540.646 14.6042 544.875 18.6875ZM527.531 48.1562C531.135 48.1562 533.854 46.9896 535.688 44.6562C537.521 42.3229 538.438 39.3021 538.438 35.5938C538.438 31.8854 537.521 28.8646 535.688 26.5312C533.833 24.2188 531.115 23.0625 527.531 23.0625C523.948 23.0625 521.24 24.2188 519.406 26.5312C517.573 28.8646 516.656 31.8854 516.656 35.5938C516.656 39.3021 517.573 42.3229 519.406 44.6562C521.24 46.9896 523.948 48.1562 527.531 48.1562ZM571.688 47.75H596.781V58H559.531V13.1875H571.688V47.75ZM644.594 41.4375C644.594 47.1042 642.615 51.3854 638.656 54.2812C634.698 57.1771 629.448 58.625 622.906 58.625C616.365 58.625 611.115 57.1771 607.156 54.2812C603.177 51.3646 601.188 47.0833 601.188 41.4375V13.1875H613.344V40.7812C613.344 43.3854 614.26 45.2604 616.094 46.4062C617.927 47.5729 620.198 48.1562 622.906 48.1562C625.615 48.1562 627.885 47.5729 629.719 46.4062C631.531 45.2604 632.438 43.3854 632.438 40.7812V13.1875H644.594V41.4375ZM664.969 23.4375H650.062V13.1875H692.031V23.4375H677.125V58H664.969V23.4375ZM696.5 13.1875H729.906V22.9375H719.281V48.2812H729.906V58H696.5V48.2812H707.125V22.9375H696.5V13.1875ZM776.625 18.6875C780.854 22.7917 782.969 28.4271 782.969 35.5938C782.969 42.7396 780.854 48.3646 776.625 52.4688C772.354 56.5729 766.583 58.625 759.312 58.625C752 58.625 746.229 56.5729 742 52.4688C737.75 48.3646 735.625 42.7396 735.625 35.5938C735.625 28.4062 737.75 22.7708 742 18.6875C746.208 14.6042 751.979 12.5625 759.312 12.5625C766.625 12.5625 772.396 14.6042 776.625 18.6875ZM759.281 48.1562C762.885 48.1562 765.604 46.9896 767.438 44.6562C769.271 42.3229 770.188 39.3021 770.188 35.5938C770.188 31.8854 769.271 28.8646 767.438 26.5312C765.583 24.2188 762.865 23.0625 759.281 23.0625C755.698 23.0625 752.99 24.2188 751.156 26.5312C749.323 28.8646 748.406 31.8854 748.406 35.5938C748.406 39.3021 749.323 42.3229 751.156 44.6562C752.99 46.9896 755.698 48.1562 759.281 48.1562ZM836.188 58H816.562L805.156 29.7188L802.531 23.6875H801.312L803.438 29.7188V58H791.281V13.1875H810.906L822.312 41.5L824.938 47.5H826.156L824.031 41.5V13.1875H836.188V58Z" fill="black"/>
<path d="M299.969 124H287.812V79.1875H325.188V88.9375H299.969V99.2188H320.688V108.438H299.969V124ZM370.344 84.6875C374.573 88.7917 376.688 94.4271 376.688 101.594C376.688 108.74 374.573 114.365 370.344 118.469C366.073 122.573 360.302 124.625 353.031 124.625C345.719 124.625 339.948 122.573 335.719 118.469C331.469 114.365 329.344 108.74 329.344 101.594C329.344 94.4062 331.469 88.7708 335.719 84.6875C339.927 80.6042 345.698 78.5625 353.031 78.5625C360.344 78.5625 366.115 80.6042 370.344 84.6875ZM353 114.156C356.604 114.156 359.323 112.99 361.156 110.656C362.99 108.323 363.906 105.302 363.906 101.594C363.906 97.8854 362.99 94.8646 361.156 92.5312C359.302 90.2188 356.583 89.0625 353 89.0625C349.417 89.0625 346.708 90.2188 344.875 92.5312C343.042 94.8646 342.125 97.8854 342.125 101.594C342.125 105.302 343.042 108.323 344.875 110.656C346.708 112.99 349.417 114.156 353 114.156ZM404.625 109.281H397.156V124H385V79.1875H405.156C411.865 79.1875 416.688 80.375 419.625 82.75C422.562 85.125 424.031 88.8646 424.031 93.9688C424.031 95.8229 423.781 97.5521 423.281 99.1562C422.802 100.74 422.167 102 421.375 102.938C419.833 104.771 418.458 105.99 417.25 106.594L416.469 106.906V107.094L427.469 124H413.969L404.625 109.281ZM397.156 99.1562H405.156C409.198 99.1562 411.219 97.5104 411.219 94.2188C411.219 90.9479 409.198 89.3125 405.156 89.3125H397.156V99.1562Z" fill="black"/>
<path d="M446.938 155.062C443.479 155.062 440.844 156.229 439.031 158.562C437.219 160.896 436.312 163.906 436.312 167.594C436.312 171.281 437.219 174.292 439.031 176.625C440.844 178.979 443.479 180.156 446.938 180.156C448.646 180.156 450.177 179.885 451.531 179.344C452.906 178.802 453.948 178.115 454.656 177.281C455.99 175.74 456.75 174.281 456.938 172.906L457.062 172.094H469.844C469.844 177.51 467.74 181.948 463.531 185.406C459.302 188.885 453.771 190.625 446.938 190.625C439.812 190.625 434.135 188.573 429.906 184.469C425.656 180.365 423.531 174.74 423.531 167.594C423.531 160.406 425.656 154.771 429.906 150.688C434.115 146.604 439.792 144.562 446.938 144.562C453.771 144.562 459.302 146.302 463.531 149.781C467.74 153.24 469.844 157.688 469.844 163.125H457.062C457.062 162.458 456.792 161.521 456.25 160.312C455.812 159.375 455.271 158.552 454.625 157.844C453.917 157.073 452.875 156.417 451.5 155.875C450.146 155.333 448.625 155.062 446.938 155.062ZM497.5 175.281H490.031V190H477.875V145.188H498.031C504.74 145.188 509.562 146.375 512.5 148.75C515.438 151.125 516.906 154.865 516.906 159.969C516.906 161.823 516.656 163.552 516.156 165.156C515.677 166.74 515.042 168 514.25 168.938C512.708 170.771 511.333 171.99 510.125 172.594L509.344 172.906V173.094L520.344 190H506.844L497.5 175.281ZM490.031 165.156H498.031C502.073 165.156 504.094 163.51 504.094 160.219C504.094 156.948 502.073 155.312 498.031 155.312H490.031V165.156ZM564.375 190H526.125V145.188H564.375V154.938H538.281V162.469H560.031V171.688H538.281V180.281H564.375V190ZM585.469 145.188H600.969L618.875 190H606.156L603.406 183.156H583.031L580.281 190H567.562L585.469 145.188ZM586.438 173.938H600L593.594 157.031H592.844L586.438 173.938ZM629.938 155.438H615.031V145.188H657V155.438H642.094V190H629.938V155.438ZM661.469 145.188H694.875V154.938H684.25V180.281H694.875V190H661.469V180.281H672.094V154.938H661.469V145.188ZM733.5 145.188H746.312L731.156 190H714.5L699.344 145.188H712.125L722.25 178.156H723.406L733.5 145.188ZM790.312 190H752.062V145.188H790.312V154.938H764.219V162.469H785.969V171.688H764.219V180.281H790.312V190Z" fill="black"/>
<path d="M235.531 211.188H268.938V220.938H258.312V246.281H268.938V256H235.531V246.281H246.156V220.938H235.531V211.188ZM277.25 211.188H296.125C303.604 211.188 309.417 213.115 313.562 216.969C317.667 220.844 319.719 226.385 319.719 233.594C319.719 240.802 317.667 246.333 313.562 250.188C309.438 254.062 303.625 256 296.125 256H277.25V211.188ZM296.125 221.438H289.406V245.75H296.125C299.75 245.75 302.458 244.635 304.25 242.406C306.042 240.177 306.938 237.24 306.938 233.594C306.938 229.927 306.042 226.979 304.25 224.75C302.479 222.542 299.771 221.438 296.125 221.438ZM366.312 256H328.062V211.188H366.312V220.938H340.219V228.469H361.969V237.688H340.219V246.281H366.312V256ZM387.406 211.188H402.906L420.812 256H408.094L405.344 249.156H384.969L382.219 256H369.5L387.406 211.188ZM388.375 239.938H401.938L395.531 223.031H394.781L388.375 239.938ZM462.375 224.25V225.406H449.594V224.25C449.594 222.938 449.01 221.906 447.844 221.156C446.677 220.406 444.979 220.031 442.75 220.031C440.583 220.031 438.896 220.396 437.688 221.125C436.5 221.833 435.906 222.792 435.906 224C435.906 225.083 436.615 225.958 438.031 226.625C439.385 227.25 441.135 227.677 443.281 227.906C445.406 228.135 447.698 228.51 450.156 229.031C452.656 229.594 454.958 230.281 457.062 231.094C459.188 231.927 460.948 233.312 462.344 235.25C463.74 237.208 464.438 239.646 464.438 242.562C464.438 247 462.615 250.448 458.969 252.906C455.302 255.385 450.062 256.625 443.25 256.625C436.312 256.625 431.042 255.406 427.438 252.969C423.854 250.51 422.062 246.938 422.062 242.25V240.438H434.875V242.312C434.875 245.562 437.667 247.177 443.25 247.156C445.729 247.156 447.75 246.781 449.312 246.031C450.854 245.302 451.625 244.167 451.625 242.625C451.625 241.5 450.927 240.615 449.531 239.969C448.094 239.302 446.333 238.844 444.25 238.594C442.146 238.344 439.854 237.938 437.375 237.375C434.854 236.792 432.562 236.104 430.5 235.312C428.396 234.542 426.635 233.177 425.219 231.219C423.802 229.302 423.094 226.938 423.094 224.125C423.094 219.938 424.792 216.625 428.188 214.188C431.604 211.771 436.458 210.562 442.75 210.562C449.125 210.562 453.99 211.74 457.344 214.094C460.698 216.427 462.375 219.812 462.375 224.25Z" fill="black"/>
</svg>
