<svg width="56" height="44" viewBox="0 0 56 44" fill="none" xmlns="http://www.w3.org/2000/svg">
<path fill-rule="evenodd" clip-rule="evenodd" d="M56 8C56 3.58172 52.4183 0 48 0H8C3.58172 0 0 3.58172 0 8V30C0 34.4183 3.58172 38 8 38H33.4844C35.1412 38 36.4844 39.3431 36.4844 41C36.4844 42.6569 37.8275 44 39.4844 44H52.9995C54.6564 44 55.9995 42.6569 55.9995 41V38.0002C55.9995 38.0001 55.9996 38 55.9998 38C55.9999 38 56 37.9999 56 37.9998V8Z" fill="white"/>
<path fill-rule="evenodd" clip-rule="evenodd" d="M18 17C18 16.4477 18.4649 16 19.0385 16H25.9615C26.5351 16 27 16.4477 27 17C27 17.5523 26.5351 18 25.9615 18H19.0385C18.4649 18 18 17.5523 18 17ZM18 21C18 20.4477 18.584 20 19.3043 20H36.6957C37.416 20 38 20.4477 38 21C38 21.5523 37.416 22 36.6957 22H19.3043C18.584 22 18 21.5523 18 21ZM30.9231 24C30.4133 24 30 24.4477 30 25C30 25.5523 30.4133 26 30.9231 26H37.0769C37.5867 26 38 25.5523 38 25C38 24.4477 37.5867 24 37.0769 24H30.9231Z" fill="#474844"/>
</svg>
