<svg width="24" height="24" viewBox="0 0 24 24" fill="none" xmlns="http://www.w3.org/2000/svg">
<path fill-rule="evenodd" clip-rule="evenodd" d="M14.1336 18.8402C13.9457 18.6379 13.9574 18.3215 14.1598 18.1336L20.7652 12L14.1598 5.86639C13.9574 5.67849 13.9457 5.36213 14.1336 5.15977C14.3215 4.95742 14.6379 4.9457 14.8402 5.1336L21.8402 11.6336C21.9421 11.7282 22 11.861 22 12C22 12.139 21.9421 12.2718 21.8402 12.3664L14.8402 18.8664C14.6379 19.0543 14.3215 19.0426 14.1336 18.8402Z" fill="#FD5523"/>
<path fill-rule="evenodd" clip-rule="evenodd" d="M21 12C21 12.2761 20.7761 12.5 20.5 12.5L2.5 12.5C2.22386 12.5 2 12.2761 2 12C2 11.7239 2.22386 11.5 2.5 11.5L20.5 11.5C20.7761 11.5 21 11.7239 21 12Z" fill="#FD5523"/>
</svg>
