<svg width="30" height="30" viewBox="0 0 30 30" fill="none" xmlns="http://www.w3.org/2000/svg">
<path d="M15 27.5008C14.675 27.5008 14.3625 27.4133 14.0625 27.2508C11.9375 26.0008 5 21.4508 5 15.0383V7.51328C5 6.73828 5.4875 6.02578 6.2 5.75078L14.325 2.62578C14.75 2.46328 15.225 2.46328 15.65 2.62578L23.775 5.75078C24.5125 6.02578 25 6.73828 25 7.51328V15.0383C25 21.4508 18.0625 26.0008 15.9375 27.2383C15.6375 27.4133 15.325 27.5008 15 27.5008ZM14.7 26.1633C14.8875 26.2758 15.1125 26.2758 15.3 26.1633C17.2875 25.0008 23.75 20.7883 23.75 15.0383V7.51328C23.75 7.25078 23.5875 7.00078 23.35 6.91328L15.225 3.78828C15.0875 3.73828 14.925 3.73828 14.7875 3.78828L6.6625 6.91328C6.4125 7.00078 6.25 7.25078 6.25 7.51328V15.0383C6.25 20.7883 12.7125 25.0133 14.7 26.1633Z" fill="#CFE264"/>
</svg>
