<svg width="30" height="30" viewBox="0 0 30 30" fill="none" xmlns="http://www.w3.org/2000/svg">
<path fill-rule="evenodd" clip-rule="evenodd" d="M8.75 11.875C8.75 11.5298 9.02982 11.25 9.375 11.25H20.625C20.9702 11.25 21.25 11.5298 21.25 11.875C21.25 12.2202 20.9702 12.5 20.625 12.5H9.375C9.02982 12.5 8.75 12.2202 8.75 11.875Z" fill="#CFE264"/>
<path fill-rule="evenodd" clip-rule="evenodd" d="M8.75 15.625C8.75 15.2798 9.02982 15 9.375 15H20.625C20.9702 15 21.25 15.2798 21.25 15.625C21.25 15.9702 20.9702 16.25 20.625 16.25H9.375C9.02982 16.25 8.75 15.9702 8.75 15.625Z" fill="#CFE264"/>
<path fill-rule="evenodd" clip-rule="evenodd" d="M8.75 8.125C8.75 7.77982 9.02982 7.5 9.375 7.5H15.625C15.9702 7.5 16.25 7.77982 16.25 8.125C16.25 8.47018 15.9702 8.75 15.625 8.75H9.375C9.02982 8.75 8.75 8.47018 8.75 8.125Z" fill="#CFE264"/>
<path fill-rule="evenodd" clip-rule="evenodd" d="M8.75 19.375C8.75 19.0298 9.02982 18.75 9.375 18.75H20.625C20.9702 18.75 21.25 19.0298 21.25 19.375C21.25 19.7202 20.9702 20 20.625 20H9.375C9.02982 20 8.75 19.7202 8.75 19.375Z" fill="#CFE264"/>
<path fill-rule="evenodd" clip-rule="evenodd" d="M8.75 23.125C8.75 22.7798 9.02982 22.5 9.375 22.5H20.625C20.9702 22.5 21.25 22.7798 21.25 23.125C21.25 23.4702 20.9702 23.75 20.625 23.75H9.375C9.02982 23.75 8.75 23.4702 8.75 23.125Z" fill="#CFE264"/>
<path fill-rule="evenodd" clip-rule="evenodd" d="M19.375 3.125C19.7202 3.125 20 3.40482 20 3.75V7.125C20 7.32982 20.1702 7.5 20.375 7.5H23.75C24.0952 7.5 24.375 7.77982 24.375 8.125C24.375 8.47018 24.0952 8.75 23.75 8.75H20.375C19.4798 8.75 18.75 8.02018 18.75 7.125V3.75C18.75 3.40482 19.0298 3.125 19.375 3.125Z" fill="#CFE264"/>
<path fill-rule="evenodd" clip-rule="evenodd" d="M6.725 3.75C6.43157 3.75 6.25 3.97006 6.25 4.1625V25.8375C6.25 26.0299 6.43157 26.25 6.725 26.25H23.2625C23.5559 26.25 23.7375 26.0299 23.7375 25.8375V8.6375C23.7375 8.45956 23.674 8.30792 23.5581 8.19194L19.3024 3.93627C19.1716 3.81464 19.0117 3.75 18.85 3.75H6.725ZM5 4.1625C5 3.20494 5.81843 2.5 6.725 2.5H18.85C19.3611 2.5 19.8241 2.70861 20.1673 3.03378L20.1796 3.0454L20.1794 3.04556L24.4419 7.30806C24.801 7.66708 24.9875 8.14044 24.9875 8.6375V25.8375C24.9875 26.7951 24.1691 27.5 23.2625 27.5H6.725C5.81843 27.5 5 26.7951 5 25.8375V4.1625Z" fill="#CFE264"/>
</svg>
