<svg width="30" height="30" viewBox="0 0 30 30" fill="none" xmlns="http://www.w3.org/2000/svg">
<path fill-rule="evenodd" clip-rule="evenodd" d="M13.9215 2.83454C14.572 2.38849 15.428 2.38849 16.0785 2.83454L16.0859 2.83963L26.7188 10.3578C27.2015 10.7106 27.5 11.284 27.5 11.8875V25.5625C27.5 26.5952 26.6577 27.4375 25.625 27.4375H19.375C18.3423 27.4375 17.5 26.5952 17.5 25.5625V19.325C17.5 18.9827 17.2173 18.7 16.875 18.7H13.125C12.7827 18.7 12.5 18.9827 12.5 19.325V25.575C12.5 26.6077 11.6577 27.45 10.625 27.45H4.375C3.34232 27.45 2.5 26.6077 2.5 25.575V11.8875C2.5 11.2682 2.80126 10.7086 3.28124 10.3579L3.28913 10.3521L13.9215 2.83454ZM14.6315 3.86335L4.01545 11.3696C3.84746 11.4938 3.75 11.6832 3.75 11.8875V25.575C3.75 25.9173 4.03268 26.2 4.375 26.2H10.625C10.9673 26.2 11.25 25.9173 11.25 25.575V19.325C11.25 18.2923 12.0923 17.45 13.125 17.45H16.875C17.9077 17.45 18.75 18.2923 18.75 19.325V25.5625C18.75 25.9048 19.0327 26.1875 19.375 26.1875H25.625C25.9673 26.1875 26.25 25.9048 26.25 25.5625V11.8875C26.25 11.6923 26.1498 11.492 25.9845 11.3695L15.3685 3.86335C15.1454 3.71222 14.8546 3.71222 14.6315 3.86335Z" fill="#CFE264"/>
</svg>
